<svg width="283" height="25" viewBox="0 0 283 25" fill="none" xmlns="http://www.w3.org/2000/svg">
<path d="M0.647949 4.94709C0.647949 9.1159 1.11115 10.1848 1.50309 6.87116C1.8594 3.87816 2.8927 2.13225 4.31793 2.09662C4.88803 2.09662 4.92366 2.84487 4.92366 12.7859V23.4752L4.03288 23.9027C2.39386 24.651 3.10648 24.9004 6.88336 24.9004C10.6602 24.9004 11.5154 24.5797 9.55567 23.8671L8.48675 23.5108V12.8215V2.09662H9.30626C10.7671 2.09662 11.6579 3.73564 12.228 7.33436C12.6912 10.2561 13.1544 8.90212 13.0475 5.01835L12.9406 1.20585L6.81209 1.09895L0.647949 1.02769V4.94709Z" fill="#898989"/>
<path d="M13.8315 1.384C13.8315 1.59779 14.1166 1.88283 14.4729 1.98973C14.7936 2.13225 15.1855 2.38167 15.328 2.59545C15.4706 2.80924 15.6131 7.47688 15.6131 12.964C15.6131 18.4512 15.4706 23.1188 15.328 23.3326C15.1855 23.5464 14.7936 23.7958 14.4729 23.9384C14.1166 24.0452 13.8315 24.3303 13.8315 24.5441C13.8315 24.7579 15.1143 24.9004 17.2165 24.9004C19.0693 24.9004 20.6014 24.7935 20.6014 24.6866C20.6014 24.5441 20.2095 24.0809 19.7106 23.6177C18.8555 22.8338 18.8199 22.6556 18.8199 17.9524V13.1422H21.4922H24.1645V18.0236C24.1645 20.7316 24.022 23.1188 23.8795 23.3326C23.7369 23.5464 23.345 23.7958 23.0243 23.9384C22.668 24.0452 22.383 24.3303 22.383 24.5441C22.383 24.7579 23.6657 24.9004 25.7679 24.9004C29.1172 24.9004 29.8654 24.6153 28.4402 23.8315C27.7632 23.4752 27.7276 23.0832 27.7276 12.964C27.7276 2.84487 27.7632 2.45293 28.4402 2.09662C29.8654 1.31274 29.1172 1.02769 25.7679 1.02769C23.6657 1.02769 22.383 1.17022 22.383 1.384C22.383 1.59779 22.668 1.88283 23.0243 1.98973C24.0576 2.38167 24.1645 2.84487 24.1645 7.51251V12.0733H21.4922H18.8199V7.51251C18.8199 2.84487 18.9268 2.38167 19.9957 1.98973C20.3164 1.88283 20.6014 1.59779 20.6014 1.384C20.6014 1.17022 19.3187 1.02769 17.2165 1.02769C15.1143 1.02769 13.8315 1.17022 13.8315 1.384Z" fill="#898989"/>
<path d="M30.2217 1.34886C30.2217 1.56264 30.5424 1.88332 30.9343 2.09711C31.6113 2.45341 31.6469 2.84535 31.6469 12.9645C31.6469 23.0837 31.6113 23.4756 30.9343 23.832C29.2953 24.7227 30.3286 24.9009 36.2077 24.8296L42.158 24.7227L42.2649 20.8746C42.3362 18.5942 42.2293 17.0621 42.0155 17.0621C41.6236 17.0621 41.4098 17.6678 41.0891 19.8057C40.9466 20.6608 40.4834 21.8366 40.0558 22.478C39.3432 23.5469 39.0938 23.6538 37.241 23.7607L35.21 23.8676V18.2735V12.7151L36.0295 12.9289C36.4571 13.0358 36.9915 13.1427 37.2053 13.1427C37.7398 13.1427 38.4168 14.7461 38.4168 15.9932C38.4168 16.5632 38.5949 17.1333 38.7731 17.2402C38.9869 17.3828 39.1294 15.7437 39.1294 12.6438C39.1294 7.9762 38.7018 6.26592 38.3099 9.25891C38.0961 10.9692 37.2053 12.0738 36.0295 12.0738H35.21V7.08543V2.09711H36.9203C39.5213 2.09711 40.1271 2.95225 41.0891 7.86931C41.196 8.4394 41.4454 8.86697 41.6592 8.86697C41.873 8.86697 41.9799 7.44174 41.9086 5.01884L41.8017 1.20633L36.0295 1.09944C32.3595 1.06381 30.2217 1.13507 30.2217 1.34886Z" fill="#898989"/>
<path d="M47.1821 1.34876C47.0752 1.49129 47.3603 1.81197 47.8235 2.02575C48.7855 2.45332 48.8211 2.63148 51.8141 16.8126C53.3819 24.2238 53.5957 24.9364 54.237 24.8295C54.9496 24.7226 55.2703 23.4756 57.1231 13.0001C57.5507 10.6841 57.8357 9.6864 58.0139 10.1496C58.1564 10.5059 58.869 13.9265 59.6173 17.739C60.9 24.0813 61.4345 25.5421 62.1827 24.7939C62.2896 24.687 63.3942 19.8056 64.6056 13.9621C65.8527 8.11864 66.9573 3.05905 67.0998 2.73837C67.2423 2.38206 67.6342 2.02575 68.0262 1.91886C69.4158 1.45566 68.6319 1.02809 66.4228 1.02809C63.893 1.02809 63.2516 1.42003 64.6056 2.02575C65.247 2.3108 65.4964 2.70274 65.4964 3.45099C65.4964 4.48428 63.1091 16.7057 62.8597 16.9551C62.7172 17.0976 60.1518 3.98545 60.1518 3.05905C60.1518 2.73837 60.4724 2.27517 60.8644 2.02575C62.1471 1.20624 61.6482 1.02809 58.3702 1.02809C55.3059 1.02809 54.4864 1.31314 55.7335 2.02575C56.0542 2.20391 56.5174 3.27283 56.8024 4.44865C57.2656 6.40835 57.2656 6.87156 56.3392 11.7886C55.8404 14.7104 55.3416 16.9907 55.2703 16.9551C55.1991 16.8838 54.5933 14.0334 53.9163 10.6128C53.2394 7.19223 52.598 4.05671 52.4911 3.62914C52.3486 3.09468 52.5267 2.59585 53.0256 2.20391C53.4175 1.8476 53.7382 1.45566 53.7382 1.31314C53.7382 0.921194 47.3959 0.956825 47.1821 1.34876Z" fill="#898989"/>
<path d="M71.3751 1.45526C71.3038 1.70468 70.3418 6.2298 69.2372 11.5388C66.9569 22.5844 66.7431 23.3326 65.8167 23.8315C64.5696 24.5085 65.1397 24.9004 67.4201 24.9004C69.8073 24.9004 70.8406 24.3659 69.2372 23.974C68.489 23.7958 68.3465 23.5464 68.3465 22.4419C68.3465 21.7292 68.4534 20.5534 68.5603 19.8052L68.8097 18.4868H70.8406C73.1566 18.4868 73.1923 18.5225 73.5486 21.5155C73.7624 23.3683 73.7267 23.4752 72.836 23.8671C72.3371 24.1165 71.9096 24.4372 71.9096 24.6153C71.9096 24.7579 75.9715 24.8648 80.9242 24.8291L89.9032 24.7222L90.0101 20.8741C90.0457 18.7006 89.9744 17.0616 89.7606 17.0616C89.4043 17.0616 89.0124 17.9167 89.0124 18.7719C89.0124 21.4798 87.2665 23.8315 85.2711 23.8315H84.0241V13.1422V2.45293L84.9148 2.09662C86.732 1.384 85.8056 1.02769 82.2425 1.02769C78.6438 1.02769 77.9312 1.27711 79.5702 2.02536L80.461 2.45293V12.9284C80.461 23.0832 80.4253 23.4752 79.7484 23.8315C79.2495 24.0809 78.822 24.1165 78.3588 23.8315C77.6105 23.4395 77.3611 22.4419 74.5462 9.1159C73.0854 2.13225 72.7647 1.02769 72.1946 1.02769C71.8383 1.02769 71.4464 1.24148 71.3751 1.45526ZM72.6222 16.7765C72.6222 17.311 72.3015 17.4179 70.8406 17.4179C69.166 17.4179 69.0591 17.3466 69.2016 16.5984C69.3085 16.1708 69.6292 14.4605 69.9499 12.7859C70.8763 8.01135 70.9119 8.01135 71.767 12.2514C72.2302 14.3893 72.5865 16.4559 72.6222 16.7765Z" fill="#898989"/>
<path d="M90.7939 1.34837C90.7939 1.52653 91.1859 1.91846 91.6847 2.23914L92.5755 2.80924V12.8928C92.5755 18.4156 92.433 23.1188 92.2904 23.3326C92.1479 23.5464 91.756 23.7958 91.4353 23.9384C91.079 24.0452 90.7939 24.3303 90.7939 24.5441C90.7939 24.7579 92.7536 24.9004 96.3167 24.9004H101.84V20.981C101.84 18.5937 101.697 17.0616 101.483 17.0616C101.305 17.0616 101.127 17.311 101.127 17.5961C101.127 19.0926 100.236 21.8361 99.4523 22.7625C98.7396 23.6177 98.2764 23.8315 97.1719 23.8315H95.7823V13.3916C95.7823 7.69067 95.9248 2.80924 96.0673 2.59545C96.2098 2.38167 96.673 2.09662 97.1362 1.9541C97.5638 1.81157 97.8489 1.52653 97.742 1.34837C97.4569 0.920799 90.7939 0.920799 90.7939 1.34837Z" fill="#898989"/>
<path d="M110.926 1.38399C109.18 2.09661 107.897 4.37699 107.897 6.65736C107.933 8.68832 109.037 10.6837 111.709 13.6054C114.56 16.634 115.379 18.1661 115.379 20.2684C115.379 22.7269 114.56 23.8315 112.672 23.8315C110.926 23.8315 109.643 22.0855 108.93 18.8788C108.716 17.8811 108.396 17.0616 108.218 17.0616C108.039 17.0616 107.897 18.7362 107.897 20.8028C107.897 22.8694 108.004 24.5441 108.111 24.5441C108.253 24.5441 108.574 24.259 108.788 23.9383C109.215 23.3326 109.358 23.3682 110.676 24.1165C112.458 25.1142 113.883 25.1142 115.379 24.0809C117.517 22.6556 118.052 21.5867 118.052 18.7362C118.052 15.4938 117.446 14.2467 114.275 10.8262C111.46 7.79755 110.747 6.55047 110.747 4.76892C110.747 2.84486 111.282 2.09661 112.672 2.09661C114.346 2.09661 115.273 3.30806 115.985 6.30105C116.341 7.72629 116.733 8.86648 116.876 8.86648C117.018 8.86648 117.161 7.0493 117.161 4.84019C117.125 1.45525 117.054 0.956421 116.662 1.45525C116.092 2.23913 115.451 2.23913 114.524 1.56215C113.776 0.99205 112.066 0.885159 110.926 1.38399Z" fill="#898989"/>
<path d="M118.23 4.94709C118.23 7.08494 118.373 8.86649 118.515 8.86649C118.658 8.86649 118.978 7.79756 119.192 6.47922C119.691 3.73564 120.582 2.3104 121.9 2.16788L122.862 2.06099V12.1445C122.862 17.703 122.755 22.5844 122.648 23.012C122.541 23.4395 122.042 23.8671 121.579 23.974C119.762 24.4372 121.223 24.9004 124.465 24.9004C127.708 24.9004 129.026 24.5085 127.423 23.974C126.96 23.8315 126.496 23.5464 126.354 23.3326C126.211 23.1188 126.069 18.2374 126.069 12.5008V2.09662H126.924C128.207 2.09662 129.169 3.55749 129.667 6.37233C129.917 7.76193 130.238 8.86649 130.416 8.86649C130.558 8.86649 130.701 7.08494 130.701 4.94709V1.02769H124.465H118.23V4.94709Z" fill="#898989"/>
<path d="M131.413 1.34837C131.413 1.59778 131.698 1.88283 132.054 1.98972C132.375 2.13225 132.767 2.38166 132.91 2.59545C133.052 2.80923 133.195 7.47688 133.195 12.964C133.195 18.4512 133.052 23.1188 132.91 23.3326C132.767 23.5464 132.375 23.7958 132.054 23.9384C131.698 24.0452 131.413 24.3303 131.413 24.5441C131.413 24.7579 132.696 24.9004 134.798 24.9004C137.007 24.9004 138.183 24.7579 138.183 24.5085C138.183 24.2947 137.862 24.0452 137.47 23.9384C136.544 23.6889 136.33 22.4062 136.473 17.4179L136.58 13.3203L137.506 13.2135C138.005 13.1422 138.611 13.3203 138.824 13.5698C139.038 13.8548 139.359 16.0283 139.537 18.4156C139.893 23.5108 140.428 24.651 142.53 24.8291C144.026 24.9717 144.882 24.1165 145.202 22.2637C145.452 20.5891 144.775 20.5534 144.454 22.2281C144.311 22.9051 144.062 23.4752 143.884 23.4752C143.456 23.4752 143.243 22.5131 143.029 19.0213C142.779 15.1732 142.316 13.9973 140.713 13.1422C139.965 12.7503 139.679 12.4652 140.036 12.4296C140.998 12.4296 143.1 10.363 143.563 8.97338C144.098 7.33436 143.777 4.76893 142.922 3.55748C141.497 1.66905 140.143 1.20584 135.618 1.06332C132.625 0.99206 131.413 1.06332 131.413 1.34837ZM139.038 2.66671C139.359 2.95176 139.715 3.62875 139.858 4.16321C140.285 5.62407 140.143 10.363 139.679 11.2538C139.252 12.0376 137.435 12.679 136.758 12.2514C136.544 12.1089 136.401 10.0779 136.401 7.04931V2.09662H137.435C138.005 2.09662 138.753 2.34603 139.038 2.66671Z" fill="#898989"/>
<path d="M145.167 1.34837C145.06 1.52653 145.452 1.8472 146.022 2.06099L147.091 2.4173V12.964V23.4752L146.2 23.9027C145.737 24.1165 145.416 24.4372 145.523 24.5797C145.63 24.7579 148.338 24.9004 151.581 24.9004H157.424V20.981C157.424 18.5937 157.282 17.0616 157.068 17.0616C156.89 17.0616 156.711 17.5248 156.711 18.0593C156.711 19.7695 155.678 22.6913 154.823 23.297C154.395 23.582 153.326 23.8315 152.364 23.8315H150.654V18.273V12.7146L151.616 12.964C153.113 13.3204 153.469 13.7836 153.718 15.672C154.146 18.95 154.574 17.4179 154.574 12.6077C154.574 7.97572 154.182 6.37233 153.754 9.1159C153.433 10.9331 152.578 12.0733 151.509 12.0733H150.654V7.04931V2.06099L152.507 2.16788C154.182 2.27477 154.467 2.4173 155.179 3.45059C155.642 4.16321 156.07 5.51719 156.213 6.76427C156.605 10.1848 157.068 9.18717 157.068 4.94709V1.02769H151.224C147.982 1.02769 145.274 1.17022 145.167 1.34837Z" fill="#898989"/>
<path d="M158.35 1.31296C158.243 1.49111 158.564 1.81179 159.027 2.02557L159.918 2.45314V12.9286V23.4397L158.956 23.9742C157.424 24.7937 158.422 24.9362 164.728 24.8293L170.429 24.7224L170.536 20.8743C170.607 17.8457 170.536 17.0262 170.18 17.1331C169.93 17.24 169.61 18.1307 169.467 19.164C169.147 21.3375 168.363 22.9409 167.436 23.4754C167.044 23.6535 166.011 23.8317 165.12 23.8317H163.481V18.2733V12.7148L164.301 12.9286C164.728 13.0355 165.263 13.1424 165.512 13.1424C165.975 13.1424 166.688 14.9952 166.688 16.2067C166.688 16.6699 166.866 17.1331 167.044 17.24C167.258 17.3825 167.401 15.7435 167.401 12.6436C167.401 7.97593 166.973 6.26565 166.581 9.25864C166.367 10.9689 165.477 12.0735 164.301 12.0735H163.481V7.08516V2.09683H165.192C167.793 2.09683 168.256 2.77382 169.36 7.86904C169.467 8.43913 169.717 8.8667 169.93 8.8667C170.144 8.8667 170.251 7.44147 170.18 5.01857L170.073 1.20606L164.301 1.09917C161.13 1.06354 158.457 1.1348 158.35 1.31296Z" fill="#898989"/>
<path d="M171.32 4.94709C171.32 9.08027 171.783 10.2205 172.139 6.90679C172.424 4.12758 173.386 2.3104 174.633 2.16788L175.596 2.06099V12.7859V23.4752L174.705 23.9027C173.066 24.651 173.778 24.9004 177.341 24.9004C181.011 24.9004 182.08 24.5441 180.228 23.8671L179.159 23.5108V12.7859V2.06099L180.121 2.16788C181.403 2.3104 182.365 3.98506 182.615 6.55048C182.971 9.97105 183.434 9.08027 183.434 4.98272V1.02769H177.377H171.32V4.94709Z" fill="#898989"/>
<path d="M192.699 1.31323C192.699 1.49139 193.09 1.81207 193.589 2.02585L194.48 2.45342V12.537C194.48 20.2332 194.373 22.763 194.017 23.2619C193.447 24.0457 191.701 23.9032 191.131 23.0481C190.81 22.5136 190.917 22.2286 191.737 21.4803C192.485 20.7677 192.699 20.3045 192.627 19.4494C192.556 18.4873 192.342 18.2735 191.523 18.2023C189.848 17.9885 189.029 19.0218 189.242 21.0884C189.456 23.3688 190.596 24.5446 192.734 24.794C194.694 24.9721 196.475 24.0814 197.402 22.3711C197.972 21.3022 198.043 20.1976 198.043 11.7887V2.45342L198.934 2.02585C200.573 1.2776 199.86 1.02818 196.262 1.02818C194.302 1.02818 192.699 1.17071 192.699 1.31323Z" fill="#898989"/>
<path d="M204.599 1.38456C203.317 1.8834 201.642 4.16377 201.001 6.30163C200.11 9.18773 200.11 16.7771 201.001 19.6632C202.355 24.0102 205.882 26.0768 208.875 24.224C211.512 22.5849 212.83 18.0598 212.545 11.7175C212.331 6.65793 211.512 4.1994 209.445 2.31097C207.984 0.992622 206.345 0.671946 204.599 1.38456ZM208.341 3.70057C209.053 5.58901 209.089 19.6988 208.447 21.9792C207.949 23.6895 206.702 24.4734 205.561 23.832C204.599 23.3332 204.421 22.6918 204.029 17.561C203.602 12.3945 204.029 4.80513 204.849 3.05922C205.241 2.20407 205.49 2.06155 206.559 2.16844C207.699 2.27534 207.913 2.45349 208.341 3.70057Z" fill="#898989"/>
<path d="M213.008 1.31274C213.008 1.49089 213.4 1.81157 213.899 2.02536L214.79 2.45293V11.7882C214.79 22.2993 214.932 22.9407 217.32 24.259C218.887 25.1498 221.916 24.9717 223.021 23.974C224.624 22.5488 224.766 21.5511 224.766 11.9307V2.80924L225.657 2.23914C226.406 1.74031 226.762 1.70468 227.439 2.02536L228.33 2.45293V12.964V23.4752L227.439 23.8315C225.657 24.5085 226.548 24.9004 229.897 24.9004C233.389 24.9004 234.28 24.5797 232.783 23.9027C231.893 23.4752 231.893 23.4752 231.893 18.3087V13.1066L233.211 13.2135C234.814 13.356 235.028 13.8192 235.064 18.1305C235.099 21.7649 235.563 23.6177 236.632 24.3659C237.558 25.0073 239.019 25.0429 239.874 24.4372C240.587 23.9027 241.121 20.981 240.48 20.981C240.266 20.981 240.088 21.4442 240.088 22.0143C240.088 23.012 239.553 23.7602 239.126 23.3683C239.019 23.2614 238.805 21.4798 238.663 19.4132C238.306 15.1732 237.736 13.7123 236.061 12.9997C235.42 12.7146 235.171 12.4652 235.527 12.4652C235.848 12.4296 236.596 12.002 237.237 11.5032C240.444 8.79523 240.088 4.02069 236.525 1.9541C235.42 1.27711 234.565 1.20585 228.615 1.09895C223.983 0.992062 221.916 1.09895 221.916 1.34837C221.916 1.56216 222.059 1.74031 222.237 1.74031C222.415 1.74031 222.842 1.98973 223.127 2.3104C223.947 3.09428 223.983 20.8385 223.163 22.3706C222.308 24.0809 220.598 24.3303 219.244 22.9407L218.353 22.0856V12.2514V2.45293L219.244 2.02536C220.883 1.27711 220.17 1.02769 216.571 1.02769C214.612 1.02769 213.008 1.17022 213.008 1.31274ZM234.921 2.95176C235.563 3.94942 235.99 7.90446 235.67 9.72163C235.349 11.3963 234.316 12.4296 232.962 12.4296H231.893V7.2631V2.09662H233.14C234.031 2.09662 234.529 2.3104 234.921 2.95176Z" fill="#898989"/>
<path d="M240.8 1.24148C240.8 1.384 241.192 1.8472 241.691 2.3104L242.582 3.12992V13.3204V23.4752L241.691 23.9027C240.337 24.5085 240.978 24.9004 243.508 24.9004C245.753 24.9004 246.501 24.4728 245.04 24.0096C244.648 23.8671 244.185 23.3683 243.971 22.8694C243.615 21.9074 243.508 6.47922 243.9 6.83553C244.007 6.97805 245.682 10.9687 247.606 15.7076C249.53 20.4109 251.276 24.4728 251.454 24.651C251.632 24.8291 252.06 24.9004 252.345 24.7935C252.844 24.5797 252.915 23.2257 252.915 13.4985V2.45293L253.806 2.02536C255.195 1.384 254.483 1.02769 251.81 1.02769C249.209 1.02769 248.639 1.41963 250.385 2.02536C251.775 2.52419 251.917 3.30807 251.775 10.4699L251.668 16.1708L248.675 8.58144L245.682 1.02769H243.223C241.905 1.02769 240.8 1.13458 240.8 1.24148Z" fill="#898989"/>
<path d="M259.863 1.81166C259.756 2.27486 258.723 7.19193 257.547 12.786C255.658 21.9075 255.338 23.012 254.518 23.6534C254.019 24.081 253.627 24.5085 253.627 24.6511C253.627 25.0074 258.188 24.9717 258.402 24.5798C258.509 24.4373 258.188 24.1166 257.654 23.8672C256.763 23.4752 256.727 23.3684 256.977 21.2661C257.084 20.0547 257.333 18.9145 257.511 18.7363C257.654 18.5938 258.651 18.4869 259.72 18.5582L261.609 18.6651L262.036 20.7673C262.535 23.2615 262.428 23.689 261.252 23.9741C260.789 24.1166 260.397 24.366 260.397 24.5442C260.397 24.7936 263.568 24.8649 269.412 24.8292L278.391 24.7223L278.498 20.8742C278.569 18.5226 278.462 17.0617 278.248 17.0617C278.035 17.0617 277.785 17.6674 277.678 18.38C277.322 20.5891 276.431 22.727 275.612 23.2971C275.184 23.5821 274.329 23.8316 273.688 23.8316H272.512V13.1423V2.45302L273.403 2.09671C275.184 1.41972 274.293 1.02778 270.944 1.02778C267.452 1.02778 266.561 1.34846 268.058 2.02545L268.949 2.45302V12.9285C268.949 23.0833 268.913 23.4752 268.236 23.8316C267.595 24.1879 266.098 23.7959 266.098 23.3327C266.098 23.2615 265.065 18.3088 263.782 12.3584C262.5 6.44368 261.466 1.45535 261.466 1.2772C261.466 0.635843 260.041 1.09904 259.863 1.81166ZM260.54 13.2136L261.359 17.418H259.507H257.654L258.153 14.8169C259.008 10.1493 259.435 8.33212 259.542 8.68843C259.613 8.86658 260.041 10.9332 260.54 13.2136Z" fill="#898989"/>
<path d="M279.994 22.1929C278.996 23.44 280.386 25.5066 281.704 24.6871C282.951 23.9032 282.488 21.6941 281.063 21.6941C280.707 21.6941 280.244 21.9435 279.994 22.1929Z" fill="#898989"/>
</svg>
