<svg width="130" height="25" viewBox="0 0 130 25" fill="none" xmlns="http://www.w3.org/2000/svg">
<g clip-path="url(#clip0_327_359)">
<rect width="128.907" height="24" transform="translate(0.901367 0.972656)" fill="white"/>
<path d="M81.3139 1.21973C97.5613 1.21973 113.809 1.21973 130.056 1.21973C130.056 3.05686 130.056 4.86768 129.947 6.75317C128.412 6.82784 126.987 6.82784 125.566 6.82784C125.505 7.34633 125.459 7.72989 125.405 8.19025C122.639 5.00365 118.261 6.28013 116.945 10.0271C116.272 11.9422 116.183 13.8965 116.714 15.8429C117.457 18.5649 119.811 20.1736 122.592 19.7496C123.541 19.6049 124.418 18.9892 125.336 18.5849C125.336 18.7268 125.338 18.9662 125.336 19.2055C125.325 20.1835 125.227 21.1457 124.15 21.5545C123.105 21.9506 122.145 21.8456 121.387 20.8939C121.256 20.7299 120.984 20.596 120.774 20.5918C119.431 20.5649 118.088 20.5781 116.736 20.5781C116.95 22.6868 118.284 24.1336 120.451 24.7318C120.939 24.8664 121.412 25.0556 121.891 25.2197C81.6438 25.2197 41.3963 25.2197 1.14893 25.2197C1.14893 23.7175 1.14893 22.2342 1.26488 20.6344C4.67653 20.5178 7.97245 20.5422 11.2678 20.5106C14.3069 20.4813 16.2344 19.1966 17.0103 16.7697C17.9309 13.8901 17.083 11.7938 14.5312 10.1969C15.1102 9.31512 15.9472 8.50507 16.2221 7.53562C17.0797 4.51207 15.2679 1.94108 12.1458 1.45739C11.9369 1.42501 11.7421 1.30108 11.5407 1.21973C13.6902 1.21973 15.8397 1.21973 18.1046 1.33568C18.22 7.7831 18.22 14.1146 18.22 20.4833C19.9089 20.4833 21.4917 20.4833 23.1675 20.4833C23.1675 14.3033 23.174 8.17575 23.1466 2.04837C23.1454 1.77146 22.839 1.49591 22.6747 1.21973C40.8242 1.21973 58.9737 1.21973 77.1908 1.31541C77.1897 1.83801 77.0623 2.26475 77.061 2.69186C77.0467 7.38783 77.052 12.0839 77.052 16.7799C77.052 18.0001 77.052 19.2203 77.052 20.4495C78.6303 20.4495 80.0887 20.4495 81.5436 20.4495C81.5678 19.9098 81.589 19.4385 81.6146 18.8667C84.3661 22.4411 89.3721 21.0429 90.5866 17.4668C91.4791 14.8389 91.5249 12.2183 90.4674 9.64107C89.4881 7.25453 87.4268 5.99964 84.9783 6.46765C83.8619 6.68104 82.8402 7.38944 81.8081 7.85849C81.8081 6.08458 81.8336 4.18915 81.7858 2.29556C81.7766 1.93321 81.4786 1.57815 81.3139 1.21973ZM59.497 7.97159C59.2877 8.21459 59.0783 8.4576 58.7867 8.79621C58.7524 8.05762 58.7264 7.49773 58.7006 6.94311C57.1479 6.94311 55.6864 6.94311 54.2083 6.94311C54.2083 11.4883 54.2083 15.96 54.2083 20.4462C55.8513 20.4462 57.434 20.4462 59.0649 20.4462C59.0649 18.0701 59.0617 15.7664 59.0659 13.4626C59.0694 11.5404 59.7225 10.453 60.8786 10.4246C62.0549 10.3956 62.5393 11.2345 62.5422 13.3245C62.5455 15.7003 62.5429 18.0761 62.5429 20.4346C64.2104 20.4346 65.7497 20.4346 67.3157 20.4346C67.3157 18.0426 67.2924 15.7343 67.3307 13.4269C67.3414 12.7833 67.3628 12.0292 67.6915 11.5324C68.0226 11.032 68.764 10.4833 69.285 10.5207C69.7796 10.5562 70.3554 11.2511 70.646 11.7904C70.8966 12.2556 70.8392 12.9095 70.8436 13.4805C70.8616 15.808 70.8511 18.1356 70.8511 20.467C72.5143 20.467 74.0225 20.467 75.3927 20.467C75.3927 16.9684 75.5693 13.5108 75.334 10.0815C75.1616 7.5684 73.0302 6.17437 70.5147 6.42491C68.9107 6.58467 67.6965 7.39163 66.8097 8.73655C64.7199 5.94927 62.0008 5.63832 59.497 7.97159ZM92.1803 16.1257C93.3059 19.3748 95.9882 21.1861 99.3521 20.9689C102.764 20.7485 104.946 19.0946 105.464 16.2992C104.221 16.2992 102.983 16.2593 101.751 16.3237C101.384 16.3429 100.944 16.573 100.69 16.8473C99.8903 17.7072 98.9415 17.7744 97.9882 17.3445C97.019 16.9073 96.6128 16.0562 96.7256 14.8674C99.7909 14.8674 102.777 14.8674 105.873 14.8674C105.767 13.9814 105.695 13.2084 105.581 12.4418C104.887 7.7906 100.688 5.2857 96.2493 6.86765C92.7764 8.10538 91.0877 11.8224 92.1803 16.1257ZM38.9862 13.7156C38.9407 19.675 44.1251 22.0599 48.7477 20.5092C52.35 19.3007 54.0659 15.0875 52.7038 10.9848C51.5938 7.6414 48.6186 6.0392 44.6151 6.6289C41.2575 7.12346 39.086 9.77118 38.9862 13.7156ZM38.0873 15.9337C38.1057 14.5119 38.3816 13.035 38.0919 11.679C37.3598 8.25278 34.5752 6.31204 31.0405 6.47294C27.2136 6.64713 24.8324 8.79028 24.2167 12.6145C23.6132 16.3628 25.7809 19.8788 29.2145 20.7206C33.3281 21.7292 36.8011 19.9261 38.0873 15.9337ZM106.695 9.50928C106.695 13.1548 106.695 16.8002 106.695 20.4724C108.35 20.4724 109.888 20.4724 111.499 20.4724C111.499 19.3879 111.499 18.367 111.499 17.3461C111.5 16.3178 111.472 15.2885 111.51 14.2616C111.6 11.8599 113.072 10.5709 115.438 10.7816C115.622 10.7979 115.807 10.7991 115.999 10.8076C115.999 9.36729 115.999 8.03238 115.999 6.67379C113.789 6.22341 112.429 7.37023 111.189 9.37836C111.189 8.2718 111.189 7.59111 111.189 6.95694C109.638 6.95694 108.18 6.95694 106.695 6.95694C106.695 7.78265 106.695 8.52254 106.695 9.50928Z" fill="white"/>
<path d="M11.4786 1.21973C11.7419 1.30108 11.9367 1.42501 12.1456 1.45739C15.2677 1.94108 17.0795 4.51207 16.2219 7.53562C15.947 8.50507 15.11 9.31512 14.531 10.1969C17.0828 11.7938 17.9307 13.8901 17.0101 16.7697C16.2342 19.1965 14.3067 20.4813 11.2677 20.5106C7.97227 20.5422 4.67635 20.5178 1.2647 20.5183C1.14875 14.2455 1.14875 7.97227 1.2647 1.58264C4.31707 1.46617 7.25354 1.47475 10.1898 1.45518C10.5581 1.45273 10.9253 1.30184 11.2931 1.21973C11.2931 1.21973 11.4168 1.21973 11.4786 1.21973ZM6.3635 15.8774C6.42937 16.0142 6.49526 16.2702 6.5611 16.2702C7.95765 16.27 9.37386 16.3753 10.7445 16.1748C11.8327 16.0156 12.1908 15.0711 12.0751 14.0005C11.9654 12.9844 11.3513 12.4262 10.3783 12.3786C9.07471 12.3147 7.76567 12.3628 6.36235 12.3628C6.36235 13.5202 6.36235 14.5806 6.3635 15.8774ZM6.34108 8.19942C6.47404 8.40436 6.59902 8.78045 6.74124 8.78709C7.84708 8.83873 8.96599 8.91062 10.0614 8.79386C11.0036 8.69344 11.4678 7.96452 11.4175 7.03529C11.3667 6.09666 10.8165 5.49735 9.85702 5.45278C8.72002 5.39997 7.57868 5.44037 6.34083 5.44037C6.34083 6.34268 6.34083 7.15423 6.34108 8.19942Z" fill="#898989"/>
<path d="M122.002 25.2204C121.411 25.0563 120.939 24.867 120.451 24.7324C118.284 24.1343 116.95 22.6875 116.736 20.5787C118.088 20.5787 119.431 20.5655 120.774 20.5925C120.984 20.5967 121.256 20.7306 121.387 20.8946C122.145 21.8463 123.105 21.9513 124.15 21.5551C125.227 21.1464 125.325 20.1841 125.336 19.2061C125.338 18.9668 125.336 18.7274 125.336 18.5855C124.418 18.9898 123.541 19.6056 122.592 19.7502C119.811 20.1742 117.457 18.5655 116.714 15.8435C116.183 13.8972 116.272 11.9428 116.945 10.0277C118.261 6.28077 122.639 5.00429 125.404 8.19089C125.459 7.73054 125.505 7.34697 125.566 6.82848C126.987 6.82848 128.412 6.82848 129.947 6.86979C130.056 11.2874 130.056 15.6637 129.973 20.1938C129.123 23.2415 127.594 24.604 124.715 24.979C124.509 25.0059 124.317 25.1375 124.118 25.2204C123.45 25.2204 122.782 25.2204 122.002 25.2204ZM124.362 16.0084C125.62 14.7088 125.916 12.8013 125.106 11.2581C124.687 10.4593 124.07 10.015 123.131 10.0864C121.874 10.182 121.131 11.2928 121.115 13.1237C121.098 14.9841 121.878 16.2405 123.131 16.2992C123.479 16.3155 123.835 16.1646 124.362 16.0084Z" fill="#898989"/>
<path d="M81.1981 1.21973C81.4783 1.57815 81.7764 1.93321 81.7855 2.29556C81.8334 4.18915 81.8079 6.08458 81.8079 7.85849C82.8399 7.38944 83.8617 6.68104 84.9781 6.46765C87.4265 5.99964 89.4878 7.25453 90.4671 9.64107C91.5246 12.2183 91.4788 14.8389 90.5863 17.4668C89.3718 21.0429 84.3658 22.4411 81.6144 18.8667C81.5887 19.4385 81.5675 19.9098 81.5433 20.4495C80.0884 20.4495 78.63 20.4495 77.0518 20.4495C77.0518 19.2203 77.0518 18.0001 77.0518 16.7799C77.0518 12.0839 77.0464 7.38783 77.0607 2.69186C77.062 2.26475 77.1894 1.83801 77.3065 1.31541C78.5974 1.21973 79.84 1.21973 81.1981 1.21973ZM85.4762 10.5427C84.0137 9.46932 82.72 9.77171 82.0361 11.3942C81.4187 12.8591 81.4426 14.3538 82.0744 15.8098C82.4598 16.698 83.1314 17.3037 84.1565 17.2514C85.1321 17.2017 85.7444 16.5672 85.9912 15.6789C86.462 13.9838 86.5731 12.2891 85.4762 10.5427Z" fill="#898989"/>
<path d="M22.5586 1.21973C22.8387 1.49591 23.1451 1.77146 23.1463 2.04837C23.1737 8.17575 23.1672 14.3033 23.1672 20.4833C21.4914 20.4833 19.9086 20.4833 18.2197 20.4833C18.2197 14.1146 18.2197 7.7831 18.2203 1.33568C19.6281 1.21973 21.0355 1.21973 22.5586 1.21973Z" fill="#898989"/>
<path d="M124.234 25.2202C124.317 25.1373 124.509 25.0057 124.716 24.9788C127.594 24.6039 129.123 23.2413 129.973 20.3096C130.056 21.9046 130.056 23.5375 130.056 25.2202C128.154 25.2202 126.252 25.2202 124.234 25.2202Z" fill="white"/>
<path d="M11.1771 1.22039C10.9253 1.30251 10.558 1.4534 10.1898 1.45585C7.25348 1.47541 4.31702 1.46684 1.26465 1.46735C1.35184 1.38534 1.55463 1.23201 1.75818 1.23101C4.8591 1.21574 7.96011 1.22039 11.1771 1.22039Z" fill="#898989"/>
<path d="M59.5525 7.9031C62.0006 5.63875 64.7196 5.9497 66.8094 8.73699C67.6962 7.39206 68.9105 6.5851 70.5145 6.42535C73.03 6.17481 75.1613 7.56884 75.3337 10.082C75.569 13.5112 75.3924 16.9688 75.3924 20.4674C74.0223 20.4674 72.514 20.4674 70.8509 20.4674C70.8509 18.1361 70.8614 15.8084 70.8434 13.481C70.8389 12.9099 70.8964 12.256 70.6457 11.7908C70.3551 11.2515 69.7793 10.5566 69.2848 10.5211C68.7637 10.4837 68.0223 11.0324 67.6912 11.5328C67.3625 12.0296 67.3412 12.7837 67.3305 13.4274C67.2921 15.7347 67.3154 18.0431 67.3154 20.435C65.7494 20.435 64.2102 20.435 62.5427 20.435C62.5427 18.0766 62.5452 15.7007 62.5419 13.3249C62.539 11.235 62.0547 10.3961 60.8783 10.425C59.7222 10.4534 59.0692 11.5408 59.0656 13.463C59.0614 15.7668 59.0646 18.0706 59.0646 20.4466C57.4338 20.4466 55.851 20.4466 54.208 20.4466C54.208 15.9604 54.208 11.4888 54.208 6.94355C55.6861 6.94355 57.1477 6.94355 58.7004 6.94355C58.7261 7.49817 58.7521 8.05805 58.7864 8.79664C59.0781 8.45803 59.2874 8.21503 59.5525 7.9031Z" fill="#898989"/>
<path d="M92.1577 16.0246C91.0876 11.8227 92.7764 8.10568 96.2492 6.86795C100.688 5.286 104.887 7.7909 105.581 12.4421C105.695 13.2087 105.767 13.9817 105.872 14.8677C102.777 14.8677 99.7909 14.8677 96.7255 14.8677C96.6127 16.0565 97.0189 16.9076 97.9881 17.3448C98.9414 17.7747 99.8902 17.7075 100.689 16.8476C100.944 16.5733 101.384 16.3432 101.751 16.324C102.983 16.2596 104.221 16.2995 105.464 16.2995C104.946 19.0949 102.764 20.7488 99.352 20.9692C95.9881 21.1864 93.3058 19.3751 92.1577 16.0246ZM99.8986 12.28C100.254 12.2612 100.609 12.2424 100.968 12.2234C100.774 10.4371 99.9034 9.5316 98.5848 9.66721C97.387 9.79038 96.6631 10.7841 96.7361 12.28C97.7119 12.28 98.6927 12.28 99.8986 12.28Z" fill="#898989"/>
<path d="M38.9876 13.6021C39.0859 9.77118 41.2574 7.12346 44.615 6.6289C48.6185 6.0392 51.5938 7.6414 52.7038 10.9848C54.0659 15.0875 52.3499 19.3007 48.7476 20.5092C44.125 22.0599 38.9406 19.675 38.9876 13.6021ZM45.258 9.93396C43.7932 11.0368 43.3064 13.8698 44.1404 16.158C44.4685 17.0585 45.0146 17.6915 45.985 17.6901C46.9444 17.6886 47.7425 17.0832 47.8456 16.187C48.0244 14.6329 48.1165 13.02 47.8931 11.4829C47.6948 10.1189 46.9121 9.78631 45.258 9.93396Z" fill="#898989"/>
<path d="M38.065 16.0355C36.8008 19.9263 33.3277 21.7294 29.2141 20.7208C25.7806 19.879 23.6128 16.363 24.2163 12.6147C24.832 8.79049 27.2133 6.64734 31.0402 6.47314C34.5748 6.31224 37.3595 8.25298 38.0915 11.6792C38.3812 13.0352 38.1053 14.5121 38.065 16.0355ZM29.2665 15.9548C29.5884 16.9741 30.1541 17.7888 31.3359 17.6805C32.5387 17.5702 33.1228 16.6299 33.2548 15.5773C33.4057 14.3747 33.4057 13.1261 33.2655 11.9215C33.1046 10.5393 32.2105 9.78563 31.1178 9.82527C30.1006 9.86216 29.2767 10.6397 29.1551 11.9817C29.0417 13.2349 29.1644 14.5095 29.2665 15.9548Z" fill="#898989"/>
<path d="M106.695 9.38663C106.695 8.52331 106.695 7.78342 106.695 6.95771C108.18 6.95771 109.638 6.95771 111.189 6.95771C111.189 7.59189 111.189 8.27257 111.189 9.37913C112.429 7.371 113.789 6.22419 115.999 6.67457C115.999 8.03316 115.999 9.36807 115.999 10.8084C115.807 10.7999 115.622 10.7987 115.438 10.7823C113.072 10.5717 111.6 11.8607 111.51 14.2624C111.472 15.2892 111.5 16.3186 111.499 17.3469C111.499 18.3678 111.499 19.3887 111.499 20.4732C109.888 20.4732 108.35 20.4732 106.695 20.4732C106.695 16.801 106.695 13.1555 106.695 9.38663Z" fill="#898989"/>
<path d="M6.36288 15.7595C6.3623 14.5809 6.3623 13.5205 6.3623 12.363C7.76562 12.363 9.07466 12.315 10.3782 12.3788C11.3513 12.4265 11.9653 12.9847 12.0751 14.0008C12.1907 15.0714 11.8326 16.0159 10.7444 16.1751C9.37381 16.3756 7.9576 16.2703 6.56105 16.2705C6.49521 16.2705 6.42932 16.0145 6.36288 15.7595Z" fill="white"/>
<path d="M6.34094 8.08279C6.34082 7.15441 6.34082 6.34286 6.34082 5.44056C7.57867 5.44056 8.72 5.40016 9.85701 5.45297C10.8165 5.49753 11.3667 6.09684 11.4175 7.03548C11.4678 7.9647 11.0036 8.69363 10.0614 8.79405C8.96598 8.9108 7.84707 8.83892 6.74123 8.78728C6.599 8.78063 6.47403 8.40455 6.34094 8.08279Z" fill="white"/>
<path d="M124.275 16.0486C123.835 16.1639 123.479 16.3148 123.131 16.2985C121.878 16.2397 121.099 14.9834 121.115 13.1229C121.131 11.292 121.874 10.1812 123.131 10.0856C124.07 10.0142 124.687 10.4585 125.106 11.2573C125.916 12.8005 125.62 14.708 124.275 16.0486Z" fill="white"/>
<path d="M85.5324 10.621C86.5731 12.2896 86.462 13.9843 85.9911 15.6794C85.7444 16.5677 85.132 17.2022 84.1565 17.2519C83.1313 17.3042 82.4598 16.6985 82.0744 15.8103C81.4425 14.3543 81.4186 12.8596 82.036 11.3947C82.7199 9.77221 84.0137 9.46982 85.5324 10.621Z" fill="white"/>
<path d="M99.786 12.2803C98.6926 12.2803 97.7118 12.2803 96.736 12.2803C96.6629 10.7844 97.3869 9.79076 98.5847 9.66759C99.9033 9.53198 100.774 10.4375 100.968 12.2237C100.609 12.2427 100.254 12.2615 99.786 12.2803Z" fill="white"/>
<path d="M45.3561 9.91221C46.912 9.78659 47.6947 10.1191 47.893 11.4831C48.1165 13.0202 48.0243 14.6331 47.8455 16.1873C47.7424 17.0835 46.9443 17.6889 45.9849 17.6903C45.0145 17.6918 44.4684 17.0587 44.1403 16.1583C43.3063 13.8701 43.7932 11.0371 45.3561 9.91221Z" fill="white"/>
<path d="M29.225 15.8652C29.1646 14.5099 29.0418 13.2354 29.1553 11.9822C29.2769 10.6402 30.1008 9.8626 31.1179 9.82571C32.2107 9.78607 33.1048 10.5398 33.2656 11.9219C33.4059 13.1265 33.4058 14.3752 33.255 15.5777C33.123 16.6303 32.5389 17.5707 31.336 17.6809C30.1542 17.7893 29.5885 16.9745 29.225 15.8652Z" fill="white"/>
</g>
<defs>
<clipPath id="clip0_327_359">
<rect width="128.907" height="24" fill="white" transform="translate(0.901367 0.972656)"/>
</clipPath>
</defs>
</svg>
