<svg width="172" height="25" viewBox="0 0 172 25" fill="none" xmlns="http://www.w3.org/2000/svg">
<g clip-path="url(#clip0_327_380)">
<path d="M70.8088 1.25832C104.333 1.25833 137.856 1.25833 171.248 1.42475C169.02 1.59117 166.925 1.59117 164.829 1.59117C164.819 1.70903 164.81 1.8269 164.8 1.94477C165.354 2.10174 165.916 2.23289 166.459 2.42175C167.271 2.70441 167.624 3.33913 167.296 4.10836C165.925 7.32016 164.492 10.5054 163.013 13.8564C161.68 10.871 160.43 8.07514 159.185 5.27673C158.081 2.79733 158.102 2.7606 160.732 2.07866C160.79 2.06378 160.817 1.9343 160.888 1.80462C156.199 1.80462 151.542 1.80462 146.885 1.80462C147.046 2.08182 147.243 2.1295 147.438 2.18421C149.517 2.76611 149.665 2.96383 149.666 5.15033C149.666 7.72025 149.666 10.2902 149.666 12.8601C149.666 14.2486 149.666 15.6371 149.666 17.3888C146.258 12.2652 143.086 7.48733 139.897 2.72118C139.648 2.34855 139.293 1.79553 138.958 1.77369C137.405 1.67235 135.842 1.72887 134.282 1.72887C136.06 2.25726 136.303 3.4671 136.29 5.00029C136.241 10.6632 136.273 16.3268 136.267 21.9902C136.267 22.5603 136.326 23.1633 136.16 23.6894C136.04 24.0721 135.645 24.5121 135.28 24.6227C135.045 24.6939 134.546 24.2792 134.339 23.9672C134.031 23.5037 133.855 22.9458 133.659 22.4152C131.85 17.5384 130.054 12.6574 128.245 7.78066C127.468 5.68507 126.672 3.59665 125.757 1.16895C125.425 1.89816 125.235 2.25692 125.094 2.63436C122.801 8.79621 120.509 14.9588 118.229 21.1253C117.635 22.7299 116.88 24.1668 115.083 24.7232C114.949 24.7647 114.898 25.0737 114.809 25.2583C113.943 25.2583 113.077 25.2583 112.085 25.1816C111.945 25.0554 111.932 25.0059 111.895 24.8509C110.783 24.5038 109.265 24.5464 109.164 23.1515C108.965 20.3918 109.105 17.6075 109.105 15.0499C110.879 14.9201 112.498 14.917 114.077 14.6623C117.527 14.1056 119.476 11.8515 119.603 8.47414C119.727 5.18021 118.01 2.60221 114.553 2.12132C110.819 1.60185 106.99 1.77068 103.201 1.65065C103.162 1.64941 103.118 1.80217 103.028 1.97768C104.281 2.23441 105.19 2.76336 105.18 4.26861C105.139 10.3544 105.156 16.4407 105.159 22.5267C105.16 23.9046 104.514 24.6565 103 24.6983C102.566 24.6885 102.25 24.7015 101.824 24.7007C100.078 24.5834 99.574 23.5326 99.5187 22.0849C99.2937 16.1899 99.0648 10.295 98.8299 4.4003C98.7812 3.18008 99.2965 2.4091 100.512 2.13229C100.722 2.08448 100.915 1.96138 101.116 1.87307C99.7931 1.59608 98.5211 1.69053 97.27 1.56943C96.0266 1.44909 95.4648 1.85546 95.0469 3.07307C93.294 8.18124 91.4102 13.2445 89.5012 18.5264C89.3039 18.0596 89.1836 17.8076 89.0891 17.5463C87.3695 12.7881 85.5915 8.04942 83.9745 3.25648C83.5116 1.88426 82.8794 1.41583 81.4695 1.56526C80.1215 1.70812 78.7466 1.59608 77.3836 1.59608C79.636 2.68119 79.727 2.76864 79.6469 5.26687C79.4792 10.4974 79.2481 15.726 79.0963 20.957C79.0454 22.7141 78.6654 24.1562 76.737 24.7011C76.5342 24.7584 76.4022 25.0665 76.2374 25.2583C74.7074 25.2583 73.1774 25.2583 71.5832 25.1735C72.1218 24.9635 72.7502 24.906 73.3192 24.6912C73.7498 24.5285 74.3681 24.2249 74.4463 23.8803C74.7449 22.5652 74.8585 21.2081 75.0413 19.8667C74.2525 20.5174 73.7129 21.3185 73.0744 22.0309C69.7549 25.7341 64.296 25.4783 61.795 21.284C60.7407 19.516 60.1257 17.3431 59.854 15.2826C59.361 11.5432 59.8943 7.91814 62.2426 4.72735C64.9419 1.05969 72.4138 1.22341 73.7203 6.04845C73.8059 6.36476 74.0641 6.63438 74.4397 7.24956C74.4397 5.27712 74.4397 3.70008 74.4397 2.08654C73.22 1.80833 72.0144 1.53333 70.8088 1.25832ZM69.0402 20.1791C69.6558 20.1656 70.2809 20.2171 70.8853 20.128C74.5823 19.583 77.3209 15.8198 76.6266 12.2784C75.8623 8.37965 71.9828 5.78643 68.2562 6.68314C65.1341 7.43437 62.7522 10.4133 62.8081 13.4967C62.8662 16.7001 65.2846 19.3904 69.0402 20.1791Z" fill="white"/>
<path d="M40.2373 25.2588C37.6599 25.2588 35.0825 25.2588 32.4102 25.1629C34.9403 24.2931 36.8817 22.8283 37.455 19.9811C37.9935 17.3062 37.1235 15.0876 35.0718 13.4053C34.0248 12.5467 32.7412 11.9765 31.5635 11.2775C30.2232 10.4819 28.8098 9.78596 27.5611 8.86623C26.2888 7.92912 25.8145 6.55684 26.1755 4.95636C26.537 3.35363 27.6523 2.62897 29.1578 2.31631C31.4833 1.83331 33.271 2.62777 34.392 4.72278C34.8156 5.51447 35.1438 6.35717 35.5155 7.17662C35.5882 7.15161 35.6608 7.1266 35.7334 7.1016C35.7334 6.48686 35.7334 5.87211 35.7335 5.25737C35.7335 2.13709 35.7334 2.1374 32.8657 1.38536C32.8375 1.37799 32.8273 1.30249 32.8087 1.25879C43.6718 1.25879 54.5349 1.25879 65.4929 1.36283C60.7228 2.3688 57.1002 4.88278 55.8187 9.81338C54.5524 14.6854 55.3728 19.237 59.4702 22.5874C60.916 23.7695 62.8253 24.3847 64.523 25.2588C59.5646 25.2588 54.6063 25.2588 49.5188 25.1813C49.3755 25.054 49.3612 25.0042 49.3206 24.8505C47.1735 24.424 46.8101 24.0144 46.8083 21.9015C46.8046 17.5706 46.8072 13.2397 46.8072 8.90879C46.8072 6.7789 46.8072 4.64902 46.8072 2.51972C50.5689 1.91495 51.9886 4.13851 52.8803 7.12124C52.8803 5.29345 52.8803 3.46567 52.8803 1.61352C47.5054 1.61352 42.1973 1.61352 36.9234 1.61352C36.9234 3.51586 36.9234 5.3485 36.9234 7.45462C39.0655 2.72135 39.9573 2.02936 42.9918 2.65711C42.9918 9.29255 43.0014 15.9481 42.9821 22.6035C42.979 23.6808 42.3643 24.3327 41.3202 24.6377C40.9319 24.7512 40.5967 25.0464 40.2373 25.2588Z" fill="white"/>
<path d="M1.09424 1.54441C1.47308 1.44917 1.85177 1.27145 2.23077 1.27078C11.096 1.25516 19.9612 1.25869 28.9071 1.35012C25.4749 2.19074 23.6121 4.63233 23.8538 8.1817C24.0423 10.9498 25.5748 12.8041 27.8869 14.1493C29.7663 15.2428 31.7741 16.1885 33.451 17.5396C35.8044 19.4358 35.2816 22.6549 32.614 24.0011C29.2539 25.6966 25.2077 23.8354 24.3023 20.0545C25.147 20.0545 25.9588 20.0545 26.5126 20.0545C25.936 19.1471 25.2337 18.292 24.8016 17.3171C23.2312 13.7734 21.7536 10.1886 20.234 6.62225C20.0606 6.21522 19.8438 5.82669 19.4987 5.13002C19.16 5.85655 18.9558 6.26302 18.7782 6.68081C17.3353 10.0742 15.9382 13.4878 14.4354 16.8544C13.9248 17.9982 13.1514 19.0248 12.5585 20.0052C13.7524 20.0052 15.1923 20.0052 16.3964 20.0052C15.9034 19.474 15.0266 18.9631 14.9092 18.3146C14.6483 16.8748 15.8778 15.7708 17.3923 15.7704C17.868 15.7702 18.3438 15.7702 18.8195 15.7704C19.2001 15.7706 19.7947 15.6168 19.9251 15.7977C20.5707 16.6927 21.1314 17.659 21.5904 18.6605C21.6282 18.743 20.685 19.2798 20.1927 19.598C20.0305 19.7028 19.8529 19.7838 19.6824 19.8757C19.7017 19.9677 19.7211 20.0597 19.7405 20.1516C20.936 20.1516 22.1316 20.1516 23.3784 20.1516C23.3784 21.7299 23.3784 23.1491 23.3784 24.5657C24.1779 24.808 24.9218 25.0333 25.6657 25.2587C20.5168 25.2587 15.368 25.2587 10.1132 25.1943C10.0072 25.1299 9.96857 24.9949 9.9624 24.8831C8.80572 24.3571 7.1912 24.438 7.14942 22.6841C7.07272 19.4645 7.12756 16.2418 7.12756 13.0463C9.91114 12.5363 12.1525 12.8758 13.0204 15.9795C13.0204 13.6728 13.0204 11.3661 13.0204 8.91393C10.7274 12.3693 10.4826 12.4929 7.20882 11.9432C7.20882 8.78829 7.20882 5.63355 7.20882 2.41961C8.68071 2.41961 10.0558 2.41788 11.4309 2.42003C13.3607 2.42305 14.6685 3.34318 15.362 5.12941C15.6224 5.80018 15.8271 6.49258 16.0573 7.17512C16.1256 7.15576 16.1939 7.13641 16.2622 7.11706C16.2622 5.29305 16.2622 3.46904 16.2622 1.54441C11.1615 1.54441 6.12787 1.54441 1.09424 1.54441Z" fill="white"/>
<path d="M114.942 25.2583C114.898 25.0737 114.949 24.7647 115.083 24.7232C116.88 24.1668 117.635 22.7299 118.228 21.1253C120.509 14.9588 122.8 8.79621 125.094 2.63436C125.234 2.25692 125.425 1.89816 125.757 1.16895C126.671 3.59665 127.468 5.68507 128.245 7.78066C130.053 12.6574 131.85 17.5384 133.658 22.4152C133.855 22.9458 134.03 23.5037 134.338 23.9672C134.546 24.2792 135.044 24.6939 135.279 24.6227C135.644 24.5121 136.04 24.0721 136.16 23.6894C136.325 23.1633 136.266 22.5603 136.267 21.9902C136.272 16.3268 136.241 10.6632 136.289 5.00029C136.303 3.4671 136.06 2.25726 134.282 1.72887C135.841 1.72887 137.405 1.67235 138.958 1.77369C139.293 1.79553 139.647 2.34855 139.897 2.72118C143.086 7.48733 146.258 12.2652 149.666 17.3888C149.666 15.6371 149.666 14.2486 149.666 12.8601C149.666 10.2902 149.666 7.72025 149.665 5.15033C149.665 2.96383 149.516 2.76611 147.438 2.18421C147.243 2.1295 147.045 2.08182 146.884 1.80462C151.541 1.80462 156.198 1.80462 160.888 1.80462C160.817 1.9343 160.789 2.06378 160.732 2.07866C158.102 2.7606 158.081 2.79733 159.184 5.27673C160.429 8.07514 161.68 10.871 163.012 13.8564C164.491 10.5054 165.925 7.32016 167.295 4.10836C167.624 3.33913 167.271 2.70441 166.459 2.42175C165.916 2.23289 165.353 2.10174 164.799 1.94477C164.809 1.8269 164.819 1.70903 164.829 1.59117C166.925 1.59117 169.02 1.59117 171.248 1.5676C171.38 1.67102 171.38 1.79801 171.272 2.02154C169.511 2.27932 168.741 3.44433 168.139 4.79004C166.652 8.10922 165.167 11.429 163.695 14.7546C163.546 15.0924 163.408 15.471 163.404 15.8321C163.38 18.1132 163.391 20.3947 163.397 22.6761C163.4 23.6634 163.929 24.2511 164.84 24.5492C165.209 24.6697 165.567 24.8227 165.797 24.9688C162.804 24.9776 159.943 24.9786 157.105 24.8718C159.218 24.3498 159.593 23.9124 159.602 21.8417C159.609 20.3671 159.705 18.8833 159.573 17.4206C159.461 16.1804 159.253 14.8932 158.784 13.7514C157.474 10.5614 156.016 7.43212 154.597 4.28715C154.104 3.19312 153.562 1.91878 152.102 2.19046C150.588 2.47216 150.852 3.89055 150.847 4.99532C150.82 11.7496 150.818 18.504 150.808 25.2583C150.594 25.2583 150.38 25.2583 150.086 25.1583C145.906 18.895 141.807 12.7317 137.708 6.56844C137.446 11.966 137.434 17.2642 137.457 22.5623C137.462 23.5718 138.005 24.2039 139.033 24.4754C139.562 24.615 140.028 24.9898 140.523 25.2583C140.396 25.2583 140.269 25.2583 139.978 25.1584C136.06 25.0342 132.306 25.0056 128.552 24.9973C128.352 24.9968 128.152 25.1674 127.951 25.2583C127.824 25.2583 127.697 25.2583 127.575 25.2141C127.753 25.0011 127.896 24.7577 128.103 24.6756C129.655 24.0591 129.865 23.7017 129.338 22.1105C128.91 20.8147 128.438 19.5281 127.887 18.2809C127.745 17.9581 127.238 17.606 126.889 17.5953C124.808 17.5315 122.723 17.5637 120.587 17.5637C120.037 19.0545 119.476 20.5014 118.97 21.9673C118.462 23.4399 118.887 24.1872 120.354 24.6545C120.723 24.7719 121.039 25.0526 121.38 25.2583C119.279 25.2583 117.177 25.2583 114.942 25.2583ZM124.736 9.50112C124.538 9.05598 124.341 8.61084 124.06 7.97856C122.976 10.9686 121.966 13.7517 120.939 16.5824C123.155 16.5824 125.202 16.5824 127.337 16.5824C126.463 14.2217 125.63 11.9672 124.736 9.50112Z" fill="#898989"/>
<path d="M76.3325 25.2587C76.4021 25.067 76.5341 24.7588 76.7369 24.7015C78.6653 24.1566 79.0453 22.7145 79.0963 20.9574C79.248 15.7265 79.4791 10.4979 79.6468 5.26729C79.7269 2.76906 79.6359 2.68161 77.3835 1.5965C78.7465 1.5965 80.1215 1.70855 81.4694 1.56568C82.8793 1.41625 83.5115 1.88468 83.9745 3.25691C85.5914 8.04984 87.3694 12.7885 89.089 17.5467C89.1835 17.8081 89.3039 18.06 89.5011 18.5269C91.4101 13.2449 93.2939 8.18166 95.0469 3.07349C95.4647 1.85588 96.0265 1.44952 97.2699 1.56985C98.521 1.69095 99.793 1.5965 101.116 1.87349C100.915 1.96181 100.722 2.0849 100.512 2.13271C99.2964 2.40952 98.7812 3.1805 98.8298 4.40072C99.0648 10.2954 99.2936 16.1903 99.5186 22.0853C99.5739 23.533 100.078 24.5838 101.751 24.7957C98.8986 24.9224 96.0101 24.9407 93.1468 24.8541C95.3004 24.4277 95.6722 24.0162 95.6179 21.8953C95.5436 18.9932 95.4472 16.0915 95.3411 13.1903C95.2645 11.0944 95.1568 8.99967 95.0629 6.90442C94.9836 6.89531 94.9042 6.8862 94.8249 6.87709C92.629 13.0043 90.4332 19.1315 88.2373 25.2587C88.1103 25.2587 87.9833 25.2587 87.7792 25.1499C85.4579 18.876 83.2138 12.7109 80.9697 6.54577C80.5509 11.2511 80.4268 15.9028 80.2329 20.5516C80.1529 22.4711 80.2402 24.2078 82.5391 24.8102C82.6598 24.8419 82.7202 25.1039 82.8087 25.2587C82.6817 25.2587 82.5547 25.2587 82.2617 25.161C80.3333 25.1285 78.571 25.1936 76.8087 25.2587C76.6817 25.2587 76.5547 25.2587 76.3325 25.2587Z" fill="#898989"/>
<path d="M25.7996 25.2588C24.9218 25.0334 24.1779 24.8081 23.3784 24.5658C23.3784 23.1492 23.3784 21.73 23.3784 20.1517C22.1316 20.1517 20.9361 20.1517 19.7405 20.1517C19.7211 20.0597 19.7018 19.9678 19.6824 19.8758C19.853 19.7839 20.0306 19.7029 20.1928 19.5981C20.685 19.2799 21.6283 18.7431 21.5904 18.6606C21.1314 17.6591 20.5708 16.6928 19.9252 15.7978C19.7947 15.6169 19.2002 15.7707 18.8196 15.7705C18.3438 15.7703 17.8681 15.7703 17.3923 15.7705C15.8778 15.7709 14.6484 16.8749 14.9092 18.3147C15.0267 18.9632 15.9034 19.4741 16.3965 20.0053C15.1923 20.0053 13.7524 20.0053 12.5586 20.0053C13.1515 19.0249 13.9248 17.9983 14.4355 16.8545C15.9383 13.4879 17.3354 10.0743 18.7782 6.68091C18.9559 6.26312 19.1601 5.85664 19.4987 5.13012C19.8438 5.82679 20.0607 6.21532 20.2341 6.62235C21.7536 10.1887 23.2313 13.7735 24.8017 17.3172C25.2337 18.2921 25.936 19.1472 26.5126 20.0546C25.9589 20.0546 25.1471 20.0546 24.3024 20.0546C25.2078 23.8355 29.2539 25.6967 32.614 24.0012C35.2817 22.655 35.8044 19.4359 33.451 17.5397C31.7741 16.1886 29.7664 15.2429 27.887 14.1494C25.5749 12.8042 24.0423 10.9499 23.8538 8.1818C23.6121 4.63243 25.475 2.19084 29.041 1.35022C30.2442 1.25879 31.394 1.25879 32.6762 1.25879C32.8272 1.30249 32.8374 1.37799 32.8655 1.38536C35.7333 2.1374 35.7334 2.13709 35.7333 5.25737C35.7333 5.87211 35.7333 6.48686 35.7333 7.1016C35.6607 7.1266 35.5881 7.15161 35.5154 7.17662C35.1437 6.35717 34.8154 5.51447 34.3918 4.72278C33.2709 2.62777 31.4832 1.83331 29.1576 2.31631C27.6522 2.62897 26.5369 3.35363 26.1754 4.95636C25.8144 6.55684 26.2887 7.92912 27.5609 8.86623C28.8097 9.78596 30.2231 10.4819 31.5634 11.2775C32.741 11.9765 34.0247 12.5467 35.0717 13.4053C37.1233 15.0876 37.9934 17.3062 37.4549 19.9811C36.8816 22.8283 34.9402 24.2931 32.2762 25.1629C30.1359 25.2588 28.0347 25.2588 25.7996 25.2588ZM20.1236 14.6538C19.5294 13.2073 18.9351 11.7609 18.2316 10.0483C17.4957 11.8448 16.8951 13.3112 16.2562 14.871C17.6163 14.871 18.8348 14.871 20.1236 14.6538Z" fill="#898989"/>
<path d="M150.942 25.2583C150.818 18.5039 150.82 11.7495 150.847 4.99525C150.852 3.89048 150.588 2.47209 152.102 2.19039C153.562 1.91871 154.104 3.19306 154.597 4.28708C156.016 7.43206 157.474 10.5613 158.784 13.7513C159.253 14.8931 159.461 16.1803 159.573 17.4205C159.705 18.8833 159.609 20.367 159.602 21.8417C159.593 23.9124 159.218 24.3497 157.073 24.9429C157.045 25.1672 157.069 25.2127 157.094 25.2583C155.088 25.2583 153.082 25.2583 150.942 25.2583Z" fill="white"/>
<path d="M165.929 24.9613C165.567 24.8231 165.209 24.6701 164.84 24.5496C163.929 24.2515 163.4 23.6638 163.397 22.6765C163.391 20.3951 163.38 18.1136 163.404 15.8325C163.408 15.4714 163.546 15.0928 163.695 14.755C165.167 11.4294 166.652 8.10963 168.139 4.79044C168.741 3.44473 169.511 2.27973 171.272 2.11719C171.38 9.79614 171.38 17.4764 171.38 25.2587C169.661 25.2587 167.94 25.2587 166.098 25.183C165.96 25.0587 165.945 25.01 165.929 24.9613Z" fill="white"/>
<path d="M64.657 25.2588C62.8254 24.3847 60.916 23.7695 59.4703 22.5874C55.3728 19.237 54.5525 14.6854 55.8187 9.81338C57.1003 4.88278 60.7229 2.3688 65.6269 1.36283C67.2911 1.25879 68.9162 1.25879 70.6751 1.25879C72.0144 1.53379 73.22 1.8088 74.4396 2.08701C74.4396 3.70054 74.4396 5.27759 74.4396 7.25003C74.064 6.63485 73.8059 6.36523 73.7202 6.04891C72.4137 1.22388 64.9419 1.06015 62.2426 4.72782C59.8942 7.91861 59.361 11.5436 59.854 15.283C60.1257 17.3435 60.7406 19.5165 61.7949 21.2845C64.296 25.4788 69.7549 25.7346 73.0743 22.0314C73.7129 21.319 74.2524 20.5179 75.0412 19.8671C74.8585 21.2086 74.7448 22.5657 74.4463 23.8808C74.3681 24.2253 73.7498 24.529 73.3192 24.6916C72.7502 24.9065 72.1218 24.9639 71.4495 25.1739C69.1838 25.2588 66.9873 25.2588 64.657 25.2588Z" fill="#898989"/>
<path d="M140.657 25.2582C140.028 24.9897 139.562 24.6149 139.033 24.4753C138.005 24.2038 137.462 23.5717 137.457 22.5622C137.434 17.2641 137.446 11.9659 137.708 6.56836C141.807 12.7317 145.907 18.8949 149.979 25.1582C146.898 25.2582 143.844 25.2582 140.657 25.2582Z" fill="white"/>
<path d="M1.09424 1.61537C6.12787 1.54395 11.1615 1.54395 16.2622 1.54395C16.2622 3.46858 16.2622 5.29259 16.2622 7.1166C16.1939 7.13595 16.1256 7.1553 16.0573 7.17466C15.8271 6.49212 15.6224 5.79972 15.362 5.12895C14.6685 3.34272 13.3607 2.42259 11.4309 2.41957C10.0558 2.41742 8.68071 2.41915 7.20882 2.41915C7.20882 5.63309 7.20882 8.78783 7.20882 11.9428C10.4826 12.4925 10.7274 12.3688 13.0204 8.91347C13.0204 11.3657 13.0204 13.6724 13.0204 15.9791C12.1525 12.8754 9.91114 12.5358 7.12756 13.0459C7.12756 16.2413 7.07272 19.464 7.14942 22.6836C7.1912 24.4375 8.80572 24.3567 9.82751 24.8762C6.83061 24.9786 3.96242 24.9755 1.09424 24.9725C1.09424 24.9725 1.09424 24.8297 1.20244 24.7549C2.95273 24.527 3.36538 23.4816 3.35834 22.0136C3.33156 16.4246 3.34815 10.8353 3.34746 5.24615C3.34715 2.74468 3.311 2.69161 1.09424 1.82966C1.09424 1.82966 1.09424 1.6868 1.09424 1.61537Z" fill="#898989"/>
<path d="M40.3324 25.2586C40.5966 25.0462 40.9318 24.7509 41.3201 24.6375C42.3643 24.3324 42.9789 23.6805 42.982 22.6033C43.0013 15.9478 42.9917 9.29231 42.9917 2.65687C39.9572 2.02912 39.0655 2.72111 36.9233 7.45438C36.9233 5.34826 36.9233 3.51562 36.9233 1.61328C42.1972 1.61328 47.5053 1.61328 52.8802 1.61328C52.8802 3.46543 52.8802 5.29322 52.8802 7.121C51.9885 4.13827 50.5689 1.91471 46.8071 2.51948C46.8071 4.64878 46.8071 6.77866 46.8071 8.90855C46.8071 13.2395 46.8046 17.5704 46.8082 21.9013C46.81 24.0142 47.1734 24.4238 49.1892 24.8618C46.9504 24.9774 44.8163 24.9568 42.683 24.9905C42.057 25.0004 41.4334 25.1649 40.8086 25.2586C40.6816 25.2586 40.5547 25.2586 40.3324 25.2586Z" fill="#898989"/>
<path d="M82.942 25.2579C82.7199 25.1031 82.6595 24.841 82.5387 24.8094C80.2399 24.207 80.1526 22.4702 80.2326 20.5507C80.4265 15.9019 80.5505 11.2502 80.9694 6.54492C83.2135 12.71 85.4576 18.8752 87.6836 25.1491C86.1355 25.2579 84.6056 25.2579 82.942 25.2579Z" fill="white"/>
<path d="M88.3706 25.2586C90.4329 19.1314 92.6287 13.0042 94.8246 6.87695C94.904 6.88606 94.9833 6.89518 95.0627 6.90429C95.1565 8.99954 95.2642 11.0943 95.3409 13.1902C95.4469 16.0913 95.5434 18.993 95.6177 21.8952C95.6719 24.0161 95.3002 24.4276 93.1248 24.9276C93.0833 25.1569 93.0887 25.2078 93.0942 25.2586C91.5642 25.2586 90.0342 25.2586 88.3706 25.2586Z" fill="white"/>
<path d="M121.514 25.2584C121.039 25.0527 120.723 24.7719 120.354 24.6546C118.887 24.1872 118.462 23.44 118.97 21.9674C119.476 20.5015 120.037 19.0545 120.587 17.5638C122.723 17.5638 124.808 17.5315 126.889 17.5954C127.238 17.6061 127.745 17.9581 127.887 18.281C128.438 19.5282 128.91 20.8148 129.338 22.1106C129.865 23.7018 129.655 24.0592 128.103 24.6756C127.896 24.7578 127.753 25.0012 127.48 25.2142C125.469 25.2584 123.558 25.2584 121.514 25.2584Z" fill="white"/>
<path d="M1.09424 1.96387C3.311 2.69192 3.34715 2.74498 3.34746 5.24645C3.34815 10.8356 3.33156 16.4249 3.35834 22.0139C3.36538 23.4819 2.95273 24.5273 1.20244 24.6838C1.09424 17.1573 1.09424 9.62755 1.09424 1.96387Z" fill="white"/>
<path d="M93.2281 25.2587C93.0888 25.2078 93.0834 25.157 93.0997 25.0325C96.0099 24.9406 98.8984 24.9223 101.86 24.8095C102.249 24.7019 102.566 24.6888 103.077 24.7882C106.154 24.9194 109.036 24.9381 111.919 24.9568C111.932 25.0063 111.945 25.0558 111.955 25.182C105.755 25.2587 99.5585 25.2587 93.2281 25.2587Z" fill="#898989"/>
<path d="M165.797 24.9688C165.945 25.0096 165.96 25.0582 165.964 25.1826C163.088 25.2583 160.225 25.2583 157.228 25.2583C157.069 25.2128 157.045 25.1673 157.051 25.0506C159.943 24.9785 162.804 24.9776 165.797 24.9688Z" fill="#898989"/>
<path d="M40.9424 25.2586C41.4332 25.165 42.0568 25.0005 42.6829 24.9906C44.8161 24.9568 46.9502 24.9775 49.2154 24.9658C49.361 25.004 49.3752 25.0538 49.3847 25.1811C46.612 25.2586 43.8442 25.2586 40.9424 25.2586Z" fill="#898989"/>
<path d="M111.894 24.8507C109.036 24.9375 106.154 24.9188 103.194 24.8105C104.514 24.6562 105.159 23.9044 105.159 22.5265C105.156 16.4404 105.139 10.3542 105.179 4.26836C105.189 2.76311 104.281 2.23416 103.028 1.97744C103.118 1.80192 103.162 1.64916 103.201 1.6504C106.989 1.77043 110.819 1.6016 114.553 2.12107C118.009 2.60196 119.727 5.17996 119.603 8.4739C119.476 11.8513 117.527 14.1054 114.077 14.6621C112.498 14.9168 110.879 14.9198 109.105 15.0496C109.105 17.6073 108.964 20.3916 109.164 23.1513C109.265 24.5461 110.783 24.5036 111.894 24.8507ZM109.386 13.9499C112.776 14.421 114.723 13.5351 115.192 10.9206C115.504 9.18279 115.45 7.31602 115.201 5.55795C114.931 3.65661 113.651 2.66447 111.788 2.47399C110.909 2.38411 110.013 2.45858 109.156 2.45858C109.156 6.32652 109.156 10.0738 109.386 13.9499Z" fill="#898989"/>
<path d="M68.9141 20.1647C65.2845 19.3909 62.8662 16.7006 62.8081 13.4972C62.7522 10.4138 65.1341 7.43482 68.2561 6.6836C71.9828 5.78689 75.8622 8.3801 76.6266 12.2788C77.3209 15.8203 74.5822 19.5834 70.8852 20.1284C70.2808 20.2175 69.6557 20.1661 68.9141 20.1647ZM70.9338 19.1101C71.5378 18.2973 72.5641 17.5323 72.6626 16.6622C72.9099 14.4778 72.9143 12.2267 72.677 10.0391C72.4921 8.33463 71.1976 7.40877 69.7872 7.41047C68.3359 7.41223 67.1105 8.2791 66.8983 10.0238C66.6441 12.1136 66.5797 14.2837 66.849 16.3652C67.1598 18.7673 68.3143 19.4316 70.9338 19.1101Z" fill="#898989"/>
<path d="M124.766 9.60684C125.63 11.9671 126.464 14.2216 127.337 16.5824C125.202 16.5824 123.155 16.5824 120.939 16.5824C121.966 13.7516 122.976 10.9686 124.061 7.97852C124.341 8.6108 124.539 9.05594 124.766 9.60684Z" fill="white"/>
<path d="M20.0886 14.7619C18.835 14.8705 17.6164 14.8705 16.2563 14.8705C16.8953 13.3107 17.4959 11.8443 18.2317 10.0479C18.9353 11.7604 19.5295 13.2068 20.0886 14.7619Z" fill="white"/>
<path d="M109.271 13.8855C109.156 10.0739 109.156 6.32659 109.156 2.45865C110.013 2.45865 110.909 2.38418 111.788 2.47406C113.651 2.66454 114.931 3.65668 115.201 5.55802C115.45 7.31609 115.504 9.18286 115.192 10.9207C114.723 13.5352 112.776 14.4211 109.271 13.8855Z" fill="white"/>
<path d="M70.8293 19.1589C68.3141 19.4313 67.1596 18.767 66.8488 16.3649C66.5794 14.2834 66.6439 12.1133 66.8981 10.0234C67.1103 8.27878 68.3357 7.41191 69.7869 7.41016C71.1974 7.40845 72.4919 8.33431 72.6767 10.0388C72.914 12.2264 72.9097 14.4775 72.6624 16.6619C72.5639 17.532 71.5375 18.297 70.8293 19.1589Z" fill="white"/>
</g>
<defs>
<clipPath id="clip0_327_380">
<rect width="170.286" height="24" fill="white" transform="translate(0.808594 0.972656)"/>
</clipPath>
</defs>
</svg>
