<svg width="190" height="25" viewBox="0 0 190 25" fill="none" xmlns="http://www.w3.org/2000/svg">
<g clip-path="url(#clip0_327_346)">
<rect width="189.474" height="24" transform="translate(0.427734 0.972656)" fill="white"/>
<path d="M0.427734 3.34111C0.427734 5.61479 0.459313 5.70953 1.18563 5.70953C1.84879 5.70953 2.03826 6.02532 2.95405 8.93058C3.49089 10.7306 4.84879 14.9622 5.92247 18.3411L7.88037 24.499L11.6698 24.5937L15.4909 24.6885L18.4277 15.1832C21.2067 6.37269 21.4593 5.70953 22.1225 5.70953C22.8172 5.70953 22.8488 5.61479 22.8488 3.34111V0.972687H18.2698H13.6909V3.34111V5.70953H14.6383C15.1751 5.70953 15.5856 5.86742 15.5856 6.08848C15.5856 6.68848 12.3646 18.4674 12.1119 18.7516C11.9225 18.9727 8.63826 6.97269 8.63826 6.0569C8.63826 5.86742 9.08037 5.70953 9.58563 5.70953H10.533V3.34111V0.972687H5.48037H0.427734V3.34111Z" fill="#898989"/>
<path d="M122.954 3.30986V5.70986H124.059H125.165V12.8151V19.9204H124.059H122.954V22.2888V24.6572H128.891C137.796 24.6572 140.07 24.0888 141.649 21.5625C142.186 20.6783 142.375 19.9204 142.375 18.4993C142.375 15.9099 141.523 14.3309 139.501 13.2256C138.649 12.752 138.144 12.3414 138.333 12.3414C139.186 12.3414 141.27 10.0678 141.617 8.74144C142.407 5.83618 140.67 2.45723 137.954 1.6046C137.196 1.35197 133.944 1.16249 129.838 1.06776L122.954 0.909861V3.30986ZM135.112 6.37302C135.491 6.75197 135.712 7.38354 135.712 8.10986C135.712 9.68881 134.733 10.4467 132.712 10.4467H131.165V7.88881V5.33091L132.838 5.55197C133.754 5.67828 134.733 6.02565 135.112 6.37302ZM135.617 15.7835C136.217 16.5099 136.407 18.1835 135.965 18.8467C135.523 19.5414 134.354 19.9204 132.775 19.9204H131.165V17.3625V14.8046L133.091 14.9309C134.638 15.0572 135.175 15.2151 135.617 15.7835Z" fill="#898989"/>
<path d="M63.049 2.61529L60.4279 3.24687V5.26793V7.28898H59.4806H58.5332V9.6574C58.5332 11.9627 58.5648 12.0258 59.2911 12.0258H60.0806L60.1753 17.4258L60.27 22.8258L61.2806 23.71C62.449 24.7521 64.7543 25.1627 67.2174 24.7521L68.7964 24.4995L68.8911 22.3521L68.9858 20.2363H68.0385C66.4595 20.2363 66.1122 19.3521 66.1122 15.4363V12.0258H67.5332H68.9543V9.6574V7.28898H67.5332H66.1122V4.60477C66.1122 3.12056 66.0174 1.92056 65.8911 1.95214C65.7332 1.95214 64.47 2.26793 63.049 2.61529Z" fill="#898989"/>
<path d="M185.007 2.29905C184.312 2.45694 183.207 2.74115 182.575 2.89905L181.375 3.21484V5.23589V7.28852H180.27H179.165V9.65694C179.165 11.9622 179.196 12.0254 179.922 12.0254H180.712L180.807 17.3622C180.901 22.5096 180.933 22.7306 181.659 23.5201C182.67 24.5938 185.07 25.099 187.533 24.7517L189.428 24.499L189.522 22.3517L189.617 20.2359H188.67C187.091 20.2359 186.743 19.3517 186.743 15.4359V12.0254H188.165H189.586V9.65694V7.28852H188.165H186.743V4.60431C186.743 3.1201 186.649 1.9201 186.522 1.95168C186.365 1.98326 185.701 2.14115 185.007 2.29905Z" fill="#898989"/>
<path d="M26.2594 7.4153C22.4699 8.7732 20.7331 11.9627 21.0173 17.0153C21.2383 20.5206 22.5331 22.7311 25.1541 24.089C26.7331 24.8785 30.1752 25.1627 32.291 24.6574C34.5015 24.1206 36.6173 22.1942 37.2173 20.1416L37.6594 18.6574H34.691C32.0067 18.6574 31.7225 18.7206 31.5331 19.289C30.6804 21.9416 27.2699 21.0258 27.2699 18.1521V17.0785H32.6699H38.0383L37.8488 15.2469C37.3436 10.8574 35.7015 8.39425 32.6067 7.47846C30.5857 6.87846 27.8383 6.84688 26.2594 7.4153ZM30.9015 11.8679C31.3436 12.2785 31.691 12.91 31.691 13.289C31.691 13.8574 31.5015 13.9206 29.4488 13.9206H27.2067L27.3962 13.0364C27.6488 12.0258 28.6594 11.0785 29.5436 11.0785C29.8594 11.0785 30.491 11.4258 30.9015 11.8679Z" fill="#898989"/>
<path d="M49.0594 7.32038C48.6173 7.50986 47.733 8.14144 47.1015 8.80459L45.9015 9.94144V8.61512V7.28881H42.4278H38.9541V9.65723C38.9541 11.9625 38.9857 12.0256 39.7436 12.0256H40.533V15.973V19.9204H39.7436C38.9857 19.9204 38.9541 19.9835 38.9541 22.2888V24.6572H43.3752H47.7962V22.2888C47.7962 20.1414 47.733 19.9204 47.1646 19.9204C46.5962 19.9204 46.533 19.6993 46.533 17.2678C46.533 14.5835 46.8804 13.0362 47.5752 12.5941C48.3015 12.1204 49.6594 12.3414 50.0067 12.9414C50.1962 13.3204 50.3225 15.8783 50.3225 19.0993V24.6572H54.112H57.9015V22.2888C57.9015 19.9835 57.8699 19.9204 57.112 19.9204H56.3225V14.9309C56.3225 9.43617 56.1646 8.83617 54.4594 7.69933C53.2909 6.90986 50.5752 6.72038 49.0594 7.32038Z" fill="#898989"/>
<path d="M100.154 7.28881C98.7329 7.54144 98.0381 8.07828 97.5013 9.34144C97.0908 10.2572 97.0908 10.2572 97.0592 9.49933C97.0276 7.32038 96.996 7.28881 93.396 7.28881H90.1118V9.65723C90.1118 11.9625 90.1434 12.0256 90.9013 12.0256H91.6908V15.973V19.9204H90.9013C90.1434 19.9204 90.1118 19.9835 90.1118 22.2888V24.6572H94.8487H99.5855V22.2888V19.9204H98.6381H97.6908V17.552C97.6908 16.2572 97.8487 14.8678 98.0381 14.4256C98.5118 13.4151 100.122 12.6572 101.764 12.6572H103.059V9.97302C103.059 7.85723 102.964 7.28881 102.617 7.28881C102.364 7.28881 101.986 7.22565 101.733 7.16249C101.512 7.09933 100.786 7.16249 100.154 7.28881Z" fill="#898989"/>
<path d="M109.565 7.44651C107.544 8.20441 106.186 9.46757 105.302 11.3623C104.607 12.8465 104.48 13.5728 104.48 15.9728C104.48 19.4465 105.112 21.3097 106.849 22.8886C109.312 25.1307 114.302 25.636 117.491 23.9623C119.038 23.1728 120.491 21.2781 120.87 19.5097L121.059 18.657H118.059C115.596 18.657 115.059 18.7518 115.059 19.1307C115.059 19.9202 113.859 20.8676 112.912 20.8676C111.712 20.8676 110.954 19.9518 110.733 18.3728L110.544 17.0781H116.007H121.47L121.249 15.2465C120.775 11.2044 119.575 9.1202 117.08 7.9202C115.186 6.97283 111.396 6.75178 109.565 7.44651ZM114.238 11.7413C114.712 12.1202 115.059 12.6886 115.059 13.1623C115.059 13.8886 114.965 13.9202 113.007 13.9202C111.017 13.9202 110.954 13.8886 110.954 13.1307C110.954 12.2149 111.965 11.0781 112.817 11.0781C113.133 11.0781 113.765 11.3623 114.238 11.7413Z" fill="#898989"/>
<path d="M149.48 7.25668C145.817 8.36194 144.08 10.8567 143.859 15.2777C143.543 21.3093 145.88 24.3725 151.217 24.8777C155.859 25.3198 159.112 23.3304 160.059 19.5093L160.28 18.6567H157.407C154.943 18.6567 154.47 18.7514 154.312 19.2251C153.933 20.2988 153.175 20.8672 152.133 20.8672C150.901 20.8672 150.175 20.0146 149.891 18.2146L149.701 17.0777H155.164H160.628L160.438 14.8672C160.091 10.8567 158.354 8.4251 155.101 7.44615C153.396 6.94089 150.807 6.84615 149.48 7.25668ZM153.522 11.6146C153.901 11.9304 154.28 12.5619 154.407 13.0356L154.596 13.9198H152.354C150.27 13.9198 150.112 13.8883 150.112 13.2251C150.112 12.3093 151.312 11.0777 152.196 11.0777C152.575 11.0777 153.175 11.3304 153.522 11.6146Z" fill="#898989"/>
<path d="M165.838 7.41483C165.175 7.63588 164.291 8.07799 163.817 8.39378C162.933 8.9622 161.828 11.1096 161.796 12.2464C161.796 12.9411 161.891 12.9727 164.575 12.9727H167.323L167.796 11.9306C168.68 10.0359 170.954 10.699 170.954 12.8148V13.8254L168.459 14.0148C163.123 14.3622 160.659 16.7938 161.323 21.0885C161.859 24.7833 166.849 26.299 169.817 23.7096C170.417 23.1727 170.954 22.7622 171.08 22.7622C171.175 22.7622 171.27 23.1727 171.27 23.7096V24.6569H174.744H178.217V22.2885C178.217 20.1411 178.154 19.9201 177.586 19.9201C176.986 19.9201 176.954 19.699 176.954 16.0359C176.954 10.5096 176.449 9.30957 173.638 7.82536C172.028 7.0043 167.575 6.75167 165.838 7.41483ZM170.954 18.1833C170.954 20.4254 169.186 21.9096 167.986 20.678C167.702 20.4254 167.48 19.7306 167.48 19.1622C167.48 17.7727 168.554 16.8569 170.259 16.7938C170.891 16.7622 170.954 16.9201 170.954 18.1833Z" fill="#898989"/>
<path d="M70.0591 9.65695C70.0591 11.8675 70.0907 12.0254 70.7538 12.0254C71.417 12.0254 71.417 12.1517 71.5433 17.0464C71.638 21.5622 71.7012 22.1938 72.3012 22.9833C74.1012 25.4464 78.6801 25.6675 80.9222 23.4254L81.5854 22.7622V23.7096V24.6569H85.217H88.8486V22.2885C88.8486 19.9833 88.817 19.9201 88.0591 19.9201H87.2696V13.6043V7.28852H83.4801H79.6907V9.65695C79.6907 11.8043 79.7538 12.0254 80.3222 12.0254C80.9222 12.0254 80.9538 12.2464 80.9538 15.4991C80.9538 18.8464 80.9222 18.9727 80.1643 19.478C79.438 19.9517 79.3117 19.9517 78.5854 19.478L77.7959 18.9727V13.1306V7.28852H73.9433H70.0591V9.65695Z" fill="#898989"/>
</g>
<defs>
<clipPath id="clip0_327_346">
<rect width="189.474" height="24" fill="white" transform="translate(0.427734 0.972656)"/>
</clipPath>
</defs>
</svg>
