<svg width="216" height="30" viewBox="0 0 216 30" fill="none" xmlns="http://www.w3.org/2000/svg">
<path d="M13.6049 0.585992C14.0074 0.988507 14.1483 1.29039 14.0476 1.55203C13.6049 2.81995 13.0011 2.81995 8.85518 1.63253C5.07153 0.54574 4.54826 0.465237 3.26021 0.847627C0.965872 1.5319 -0.201424 4.45014 1.147 6.14071C1.6904 6.82499 1.85141 6.76461 1.75078 5.95958C1.65015 5.05392 2.3948 4.22876 3.34071 4.22876C3.68285 4.22876 5.73568 4.67153 7.88914 5.23505C10.0426 5.77844 12.1357 6.24134 12.5583 6.24134C13.4841 6.24134 14.9332 5.51681 15.4766 4.77216C15.7986 4.32939 15.8992 3.88662 15.8992 2.92058C15.8992 1.83379 15.8187 1.57215 15.3961 1.10926C14.8929 0.585992 13.786 0.00234365 13.2829 0.00234365C13.1218 0.00234365 13.2829 0.263979 13.6049 0.585992Z" fill="#898989"/>
<path d="M164.81 0.425365C165.394 0.888258 165.474 1.53228 165.052 2.13606C164.609 2.7197 163.22 2.57882 160.101 1.63291C156.881 0.626623 155.874 0.485742 154.667 0.807755C153.379 1.14989 152.131 2.4782 151.95 3.70587C151.789 4.79266 152.091 5.81908 152.735 6.44297L153.218 6.88574L153.117 6.08071C153.017 5.39643 153.097 5.17505 153.52 4.75241C153.862 4.41027 154.264 4.22914 154.667 4.22914C155.009 4.22914 157.062 4.67191 159.215 5.23543C163.502 6.34235 164.247 6.40272 165.434 5.85933C166.38 5.41656 166.803 4.97379 167.125 4.04801C167.648 2.45807 167.145 1.12977 165.756 0.405239C164.649 -0.138157 164.086 -0.138157 164.81 0.425365Z" fill="#898989"/>
<path d="M60.941 1.45156C60.4177 2.61885 58.7272 2.90061 57.6001 2.01508C57.3183 1.7937 57.0567 1.61256 56.9963 1.61256C56.9561 1.61256 56.2919 2.31697 55.5272 3.16225C54.7624 4.00753 54.2391 4.65156 54.38 4.57105C54.5209 4.49055 54.9636 4.63143 55.3863 4.91319C55.8089 5.19495 56.4932 5.47672 56.9158 5.53709L57.6605 5.67797V10.5283C57.6605 13.2251 57.58 15.2981 57.4794 15.1773C57.3989 15.0767 55.9699 12.5409 54.3397 9.56225C52.7095 6.56351 51.0995 3.70565 50.7775 3.18237C48.946 0.244011 45.3234 0.948414 44.9007 4.32955C44.78 5.31571 44.78 5.31571 45.0819 4.79244C45.4441 4.12829 46.0278 3.92703 46.6316 4.24904C47.6177 4.75219 47.7989 5.21508 47.7989 7.26791V9.22011L46.8932 9.34087C45.7863 9.522 44.8806 10.2264 44.5787 11.1924C44.3775 11.7761 44.3976 12.0578 44.6794 12.8025C44.9611 13.5673 45.6051 14.2918 45.9875 14.2918C46.068 14.2918 46.0882 14.0302 46.0278 13.7082C45.9473 13.0641 46.5511 12.4805 47.336 12.4805C47.7989 12.4805 47.7989 12.5006 47.7989 15.0968V17.7132L47.2555 17.8138C45.1422 18.2566 44.2768 18.7799 43.6932 20.0075C42.7674 21.9597 43.9347 24.3346 45.9875 24.6566L46.6919 24.7773L46.1687 24.4755C45.8869 24.3145 45.5246 23.8918 45.3838 23.5295C45.1422 22.9861 45.1624 22.805 45.4039 22.3622C46.0278 21.2352 47.3158 21.1145 48.6844 22.0402L49.3888 22.5031L51.0391 20.6717C51.9649 19.6453 52.468 19.0415 52.1661 19.3031L51.6228 19.8063L51.0592 19.2629C50.4756 18.6994 48.9259 17.9346 48.3624 17.9145C48.0202 17.9145 48.0001 17.4918 48.0001 11.9371C48.0001 8.3547 48.0806 6.04024 48.1812 6.14087C48.2819 6.26162 50.3146 9.90439 52.7095 14.2717C55.1045 18.639 57.1775 22.3421 57.2781 22.483C57.3989 22.6239 57.58 22.6843 57.6806 22.6239C57.7812 22.5635 57.8617 18.7799 57.8617 14.1107V5.67797L58.7473 5.45659C59.3511 5.31571 59.8542 4.9937 60.3372 4.43017C61.1825 3.52451 61.3435 3.04149 61.2429 1.7937C61.1825 0.928288 61.1825 0.928288 60.941 1.45156Z" fill="#898989"/>
<path d="M135.608 2.35765L133.756 3.66583L134.199 4.2696C134.642 4.85325 134.642 5.01426 134.702 12.1388L134.762 19.4042L134.078 20.0281C133.716 20.3501 133.555 20.5111 133.756 20.3702C134.018 20.169 134.118 20.169 134.34 20.4306C134.481 20.6117 135.044 21.1149 135.588 21.5577L136.554 22.3828L137.862 21.2356L139.17 20.0885L138.466 19.3639L137.761 18.6193V9.8042C137.761 4.97401 137.701 1.00923 137.62 1.02935C137.52 1.02935 136.634 1.63313 135.608 2.35765Z" fill="#898989"/>
<path d="M19.824 2.29691C19.0995 2.86043 18.2542 3.52458 17.9322 3.76609C17.4089 4.18873 17.3888 4.24911 17.6907 4.53087C17.9724 4.81263 18.0127 5.73842 18.0127 12.078V19.3032L17.5498 19.6453L17.0869 20.0076L18.2743 21.0944C18.9586 21.7183 19.5624 22.1208 19.7435 22.0604C19.8844 22.0001 20.5687 21.517 21.2328 20.9938L22.4202 20.0277L21.8366 19.424L21.2328 18.8001V15.0969C21.2328 11.5548 21.253 11.3736 21.6756 10.8906C21.9372 10.6089 21.9976 10.4881 21.8366 10.6089C21.6756 10.7497 21.4743 10.8705 21.3938 10.8705C21.3133 10.8705 21.2127 8.71704 21.1926 6.06043L21.1322 1.27049L19.824 2.29691Z" fill="#898989"/>
<path d="M95.8593 2.21663C95.0744 2.63927 94.4505 3.40405 94.1889 4.22921C94.048 4.71223 94.048 4.6921 94.531 4.1487C94.9335 3.68581 95.1348 3.58518 95.5574 3.70594C96.604 3.96757 96.8052 4.63172 96.8052 7.63047V10.3474L96.0002 10.5286C94.853 10.7902 93.9474 11.555 93.6656 12.4607C93.4644 13.1248 93.4845 13.3663 93.8065 14.0103C94.0279 14.4129 94.37 14.8758 94.6115 15.0368C94.9939 15.2783 95.0141 15.2581 94.9335 14.7147C94.8732 14.2921 94.9738 14.0506 95.3159 13.8091C95.9197 13.4066 96.6241 13.3864 96.7851 13.8091C96.8455 13.9902 96.9059 15.8217 96.9059 17.8946V21.6783L95.9801 22.2619C95.4769 22.5839 94.8732 23.1474 94.6518 23.5097C93.7663 24.9386 94.6518 27.6355 96.2015 28.2997C97.2279 28.7223 99.1801 28.6418 102.058 28.0783C103.507 27.7764 105.117 27.5751 105.741 27.6154C106.768 27.6758 106.868 27.716 107.069 28.2393C107.21 28.682 107.19 28.9437 106.908 29.4066C106.566 30.0103 106.566 30.0103 107.029 29.8695C108.237 29.5072 109.364 28.0179 109.384 26.8103C109.384 25.9248 108.76 24.9588 107.834 24.4154C106.989 23.9324 106.828 23.9122 105.097 24.0129C104.071 24.0732 102.32 24.3147 101.173 24.5563C98.3147 25.1198 96.9059 25.0997 96.3424 24.4959C95.7587 23.872 95.7587 22.9462 96.3625 22.4028C96.9864 21.799 98.3751 21.477 99.5625 21.638L100.549 21.7789L100.488 12.8632C100.428 3.16254 100.428 3.20279 99.2807 2.35751C98.4958 1.77386 96.8052 1.69336 95.8593 2.21663Z" fill="#898989"/>
<path d="M105.117 2.86032C104.413 3.42384 103.829 3.90686 103.789 3.94711C103.749 3.96724 104.131 4.36975 104.634 4.83265L105.56 5.69806V8.21378C105.56 10.3672 105.52 10.7698 105.218 10.9911C104.876 11.2528 104.876 11.2729 105.218 11.1521C105.52 11.0515 105.56 11.1723 105.56 12.1584C105.56 12.9031 105.479 13.2855 105.318 13.2855C105.137 13.2855 105.137 13.3459 105.318 13.527C105.701 13.9094 105.64 20.3698 105.258 21.1345C104.896 21.8389 104.393 22.1408 103.567 22.1408H102.944V17.9547C102.944 14.8754 103.004 13.688 103.205 13.5069C103.406 13.2855 103.406 13.2452 103.205 13.366C103.004 13.4666 102.944 13.205 102.944 12.2792C102.944 11.1119 102.964 11.0716 103.346 11.2729C103.588 11.3937 104.01 11.454 104.312 11.4138C104.835 11.3333 104.835 11.3333 104.232 11.293C103.004 11.2528 102.964 11.0918 102.883 7.54963C102.863 5.77856 102.823 8.35466 102.843 13.2654V22.2213L103.447 22.3823C105.962 23.0666 107.532 22.9257 108.518 21.8993L109.082 21.3157L109.142 12.7018L109.203 4.06787L107.935 2.94082C107.23 2.31692 106.606 1.81378 106.526 1.81378C106.445 1.81378 105.822 2.27667 105.117 2.86032Z" fill="#898989"/>
<path d="M170.103 4.14859L168.936 5.27563L169.882 6.36243L170.808 7.44922L171.935 6.4228C172.579 5.85928 173.102 5.33601 173.122 5.25551C173.142 5.19513 172.74 4.65173 172.217 4.08821L171.271 3.02155L170.103 4.14859Z" fill="#898989"/>
<path d="M109.565 3.7666C109.303 4.08861 109.324 4.10873 109.646 3.8471C109.827 3.70622 109.988 3.54521 109.988 3.50496C109.988 3.34395 109.827 3.44458 109.565 3.7666Z" fill="#898989"/>
<path d="M71.6276 5.71879C71.2854 5.8798 70.7219 6.34269 70.3798 6.76533C69.293 8.07351 69.5144 9.62319 71.0238 11.0722C71.4263 11.4546 71.849 12.0785 71.9496 12.4811C72.0502 12.8634 72.1508 14.6748 72.1508 16.4861C72.1508 19.3439 72.1106 19.8471 71.8087 20.2094C71.5471 20.4911 71.5471 20.5515 71.7483 20.3905C72.01 20.1892 72.332 20.3502 73.5395 21.3364L75.0087 22.5439L76.1358 21.6182C76.7597 21.0949 77.303 20.632 77.3232 20.5515C77.3433 20.4911 76.8603 20.0483 76.2565 19.5653L75.1697 18.6999V14.5741C75.1697 12.2597 75.0892 10.2873 74.9685 10.066C74.8678 9.8647 74.1836 9.28105 73.4791 8.77791C72.4125 8.01313 72.1508 7.71124 72.0301 7.14772C71.9496 6.64457 72.01 6.28231 72.2313 5.94017C72.6137 5.37665 72.5131 5.3364 71.6276 5.71879Z" fill="#898989"/>
<path d="M4.95094 6.4026C3.32075 7.1875 1.44906 9.03907 0.664151 10.629C0.0402516 11.9171 0 12.0781 0 14.2919C0 16.4655 0.0402516 16.6869 0.644025 17.9548C1.77107 20.3296 3.40126 21.6982 6.01761 22.4428C9.13711 23.3485 12.8201 21.98 14.4906 19.3233C14.9736 18.5586 15.4969 17.0491 15.6981 15.8013L15.839 14.9963L14.9937 16.2441C14.0478 17.6932 13.3434 18.3372 11.8943 19.0818C11.0491 19.5045 10.5862 19.6051 9.25786 19.6051C7.82893 19.6252 7.52704 19.5447 6.56101 19.0215C5.29308 18.3171 4.34717 17.2303 3.60252 15.6202C2.73711 13.7083 2.69686 10.4881 3.52201 9.66297C3.72327 9.46171 3.8239 9.26046 3.72327 9.2202C3.36101 9.09945 4.74969 7.04662 5.57484 6.44285C6.58113 5.69819 6.37987 5.69819 4.95094 6.4026Z" fill="#898989"/>
<path d="M156.136 6.4629C153.68 7.69057 151.668 10.3472 151.265 12.9031C151.024 14.312 151.265 16.244 151.849 17.7937C152.372 19.1623 154.264 21.2352 155.572 21.8189C160.1 23.9321 164.89 22.161 166.541 17.7937C166.762 17.1497 166.943 16.3648 166.903 16.0226L166.843 15.3987L166.5 16.0226C165.957 17.0088 164.387 18.478 163.24 19.0616C162.395 19.5044 161.932 19.605 160.604 19.605C159.195 19.6252 158.873 19.5447 157.927 19.0415C156.619 18.317 155.572 17.1698 154.908 15.7006C154.002 13.7686 154.083 9.46164 155.029 9.46164C155.29 9.46164 155.311 9.42139 155.089 9.28051C154.707 9.039 155.653 7.46919 156.739 6.5434C157.182 6.16101 157.524 5.839 157.464 5.839C157.424 5.839 156.82 6.12076 156.136 6.4629Z" fill="#898989"/>
<path d="M7.6075 7.5898L5.95718 8.31432L5.8968 12.581L5.83643 16.8477L7.70812 15.9219L9.5597 14.9961V10.9307C9.5597 8.67659 9.49932 6.84514 9.41882 6.84514C9.31819 6.86527 8.51316 7.18728 7.6075 7.5898Z" fill="#898989"/>
<path d="M158.853 7.59018L157.303 8.3147L157.243 12.5814L157.183 16.8682L158.954 15.9826L160.705 15.0971V10.9713C160.705 8.69709 160.644 6.84552 160.564 6.86565C160.463 6.86565 159.698 7.20779 158.853 7.59018Z" fill="#898989"/>
<path d="M23.6077 9.11973L22.4605 10.1663L23.3461 11.1726L24.2517 12.1789V16.8078C24.2517 22.8656 23.97 23.9726 22.1587 25.0594L21.3335 25.5625H22.058C24.0304 25.5625 26.0429 24.3348 26.9083 22.5839C27.3511 21.6782 27.3712 21.3763 27.4719 16.3046L27.5725 10.9713L26.1637 9.52225L24.7549 8.07319L23.6077 9.11973Z" fill="#898989"/>
<path d="M141.404 9.2406C140.941 9.90475 140.579 10.5287 140.579 10.6293C140.579 10.9312 142.209 11.5752 143.014 11.5752C144.242 11.5752 145.328 10.5085 145.791 8.89847L145.972 8.29469L145.127 8.67708C144.181 9.0796 143.275 8.95884 142.591 8.35507C142.249 8.05318 142.169 8.09343 141.404 9.2406Z" fill="#898989"/>
<path d="M210.395 8.93839C209.691 9.40129 208.544 10.1057 207.859 10.4881L206.591 11.1724V12.9837V14.8151L207.658 15.8617L208.725 16.9082L209.811 15.8013L210.898 14.6944L210.154 14.0705L209.409 13.4667V11.5547C209.409 10.5082 209.469 9.66292 209.53 9.66292C209.59 9.66292 209.872 9.94468 210.154 10.2667C211.16 11.4541 212.247 11.7359 213.595 11.1321C213.998 10.951 214.42 10.8302 214.501 10.8503C214.601 10.8705 214.621 10.79 214.541 10.6692C214.481 10.5686 214.501 10.468 214.601 10.468C214.803 10.468 215.125 9.7233 215.326 8.79751C215.467 8.15349 215.245 8.09311 214.742 8.65663C214.219 9.24028 213.032 9.20003 212.267 8.556L211.683 8.07298L210.395 8.93839Z" fill="#898989"/>
<path d="M34.3146 9.46202C33.2681 10.106 31.98 10.8507 31.4568 11.0922L30.4907 11.535L30.5108 15.4796L30.531 19.4243L32.2618 20.9538L34.0127 22.4834L35.2807 21.457L36.5687 20.4306L35.1398 19.1224L33.731 17.8142L33.7108 13.8897C33.7108 10.4683 33.731 10.0054 33.9926 10.267C34.5561 10.8708 36.5486 14.4935 36.4278 14.6947C36.3473 14.8155 36.931 14.4532 37.6958 13.8897L39.1046 12.8633L37.7964 10.5689C37.0719 9.30101 36.4278 8.25447 36.3473 8.27459C36.2869 8.27459 35.3612 8.81799 34.3146 9.46202Z" fill="#898989"/>
<path d="M65.4088 8.9787C64.7446 9.38121 64.1811 9.72335 64.1409 9.7636C64.0402 9.84411 66.8176 14.4932 66.9786 14.4932C67.0591 14.4932 67.6226 14.1108 68.2465 13.668L69.3333 12.8227L68.8704 11.9976C67.2402 9.17996 66.6968 8.25417 66.6566 8.25417C66.6365 8.25417 66.0729 8.57618 65.4088 8.9787Z" fill="#898989"/>
<path d="M78.3093 9.40142L76.981 10.5486L77.4841 11.0719L77.9872 11.5951V15.8216L78.0074 20.0278L79.6577 21.2756L81.308 22.5234L82.2137 22.0002C84.025 20.9536 84.0049 21.1146 82.5357 19.9071L81.2074 18.8203V15.2379C81.2074 11.736 81.2275 11.6354 81.7105 10.9914L82.1935 10.3473L81.0061 9.30079C80.3621 8.71715 79.7784 8.25425 79.7181 8.25425C79.6778 8.25425 79.0338 8.77752 78.3093 9.40142Z" fill="#898989"/>
<path d="M84.5686 9.48172L83.2202 10.7094L83.7234 11.1119L84.2265 11.4943L84.2668 16.1031L84.3271 20.7119L85.8768 19.766L87.4265 18.8201L87.4466 15.1572V11.4943L88.151 10.971L88.8353 10.4276L87.4466 9.34084C86.702 8.73707 86.0378 8.25405 85.9976 8.25405C85.9573 8.25405 85.3133 8.79745 84.5686 9.48172Z" fill="#898989"/>
<path d="M116.428 8.95887C115.824 9.32113 114.616 9.96516 113.771 10.3878L112.201 11.1526V15.3186V19.5048L113.972 20.9941L115.723 22.4834L118.702 20.7727L121.66 19.0821V15.3387V11.5953L122.224 10.9916C122.727 10.4079 122.727 10.4079 122.244 10.8306C121.962 11.0721 121.66 11.2733 121.58 11.2733C121.499 11.2733 120.654 10.5891 119.688 9.7639C118.722 8.93874 117.857 8.25447 117.736 8.27459C117.635 8.27459 117.031 8.59661 116.428 8.95887ZM117.092 11.1325L118.44 12.3803L118.4 16.6067L118.34 20.813L116.89 19.5048L115.421 18.2167V14.0306C115.421 11.7362 115.482 9.86453 115.582 9.86453C115.663 9.88465 116.327 10.4482 117.092 11.1325Z" fill="#898989"/>
<path d="M125.162 9.46209C124.398 10.1464 123.592 10.9111 123.371 11.1325C123.029 11.4948 123.049 11.4948 123.492 11.1124C123.774 10.8709 124.055 10.6696 124.116 10.6696C124.196 10.6696 124.518 11.052 124.86 11.5149L125.484 12.3602V15.7816C125.484 18.4784 125.424 19.2633 125.203 19.5049C124.941 19.8067 125.062 19.9678 126.309 21.1149C127.879 22.5439 127.698 22.5439 129.389 21.0747L130.194 20.3904L129.449 19.7262L128.704 19.0822V14.9766C128.704 12.7225 128.745 10.8709 128.805 10.8709C128.845 10.8709 129.228 11.0923 129.63 11.374C130.536 11.9778 131.16 12.0181 132.045 11.4747C132.73 11.0319 133.535 9.66335 133.535 8.89857C133.535 8.4558 133.515 8.4558 132.931 8.75769C132.387 9.03945 132.267 9.03945 131.582 8.75769L130.838 8.43567L129.711 9.56272L128.564 10.6898L127.779 9.74385C127.356 9.22058 126.893 8.65706 126.772 8.49605C126.611 8.27467 126.309 8.4558 125.162 9.46209Z" fill="#898989"/>
<path d="M169.097 9.34152L167.93 10.3679L168.755 11.3541L169.56 12.3201V15.9428V19.5855L170.707 20.9138C171.331 21.6384 171.874 22.2824 171.894 22.3227C171.935 22.3629 172.498 21.9201 173.142 21.3566L174.35 20.3101L173.565 19.4648L172.78 18.6195V15.017C172.78 11.8975 172.82 11.3541 173.122 10.9918C173.323 10.7503 173.344 10.6899 173.183 10.8107C173.022 10.9516 172.84 11.0723 172.76 11.0723C172.679 11.0723 172.076 10.4484 171.432 9.70378L170.244 8.3151L169.097 9.34152Z" fill="#898989"/>
<path d="M188.217 9.28052L186.868 10.3271L187.874 11.3937L188.881 12.4604V15.7006C188.881 17.8742 188.8 19.0617 188.639 19.3233C188.418 19.6654 188.539 19.8466 189.585 20.9736C190.249 21.678 190.833 22.2617 190.893 22.2818C190.954 22.3019 191.718 21.6378 192.604 20.7925C193.49 19.9472 194.033 19.4038 193.791 19.5849C193.389 19.9069 193.349 19.9069 192.745 19.1422L192.101 18.3371V14.6944V11.0516L191.215 10.1057C190.732 9.58241 190.169 8.95851 189.947 8.69687L189.585 8.23398L188.217 9.28052Z" fill="#898989"/>
<path d="M199.748 9.46202C198.702 10.106 197.414 10.8507 196.89 11.0922L195.924 11.535L195.944 15.4796L195.965 19.4243L197.695 20.9538L199.446 22.4834L200.734 21.457L202.002 20.4306L200.593 19.1224L199.165 17.8142L199.144 13.9299C199.144 11.8167 199.205 10.0658 199.285 10.0658C199.386 10.0658 199.607 10.3677 199.829 10.7299C200.03 11.0721 200.634 12.0985 201.137 13.0042L202.083 14.6343L203.25 13.7891C203.894 13.3262 204.438 12.9035 204.458 12.8431C204.498 12.662 201.922 8.25447 201.781 8.27459C201.721 8.27459 200.795 8.81799 199.748 9.46202Z" fill="#898989"/>
<path d="M176.564 9.38096C175.598 10.2262 174.813 10.9709 175.276 10.6288C175.376 10.5483 175.839 10.9105 176.322 11.4338L177.188 12.3797L177.208 15.62C177.208 18.5986 177.168 18.8803 176.805 19.2225C176.363 19.625 176.363 19.6049 178.154 21.6174L178.858 22.4023L180.086 21.1747L181.293 19.9671L180.77 19.3231L180.227 18.6791V14.9156C180.227 12.1784 180.287 11.0917 180.488 10.8904C180.69 10.6891 180.669 10.669 180.408 10.7696C180.186 10.8501 179.744 10.508 178.959 9.66272C178.335 8.99857 177.791 8.45517 177.731 8.45517C177.671 8.45517 177.147 8.87781 176.564 9.38096Z" fill="#898989"/>
<path d="M182.199 9.40155L181.052 10.3273L182.038 11.5148L183.044 12.7223V15.8619C183.044 18.4582 182.984 19.0418 182.722 19.3437C182.42 19.6858 182.42 19.7462 182.803 20.2695C183.024 20.5714 183.527 21.155 183.93 21.5374L184.654 22.2217L185.862 21.0343C187.049 19.867 187.049 19.8468 186.687 19.4242C186.365 19.0821 186.284 18.5387 186.164 15.1374C186.063 12.1789 186.083 11.1927 186.264 10.9714C186.486 10.7097 186.466 10.6896 186.224 10.7701C186.023 10.8506 185.54 10.4682 184.815 9.68332C184.212 8.99904 183.628 8.45564 183.527 8.47577C183.427 8.47577 182.823 8.89841 182.199 9.40155Z" fill="#898989"/>
<path d="M62.3496 10.7704L60.8804 11.5755L60.8402 15.5L60.7798 19.4245L61.8867 20.3503C62.4905 20.8736 63.215 21.5176 63.4766 21.8195C63.7584 22.1013 64.0603 22.3428 64.1609 22.3428C64.3823 22.3428 67.3207 20.1289 67.3207 19.9679C67.3207 19.9277 67.1798 19.9881 66.9987 20.1289C66.737 20.3704 66.4955 20.1893 65.288 19.0019C64.3823 18.0962 63.8993 17.4723 63.8993 17.1704C63.8993 16.9088 64.02 16.7076 64.1609 16.7076C64.342 16.7076 64.342 16.6673 64.1609 16.5465C63.9798 16.4258 63.8993 15.4396 63.859 13.1654L63.7987 9.94529L62.3496 10.7704Z" fill="#898989"/>
<path d="M11.4113 11.052L10.5459 11.8167L11.4717 12.5614L12.3975 13.3262L13.283 12.6419C13.766 12.2796 14.1887 11.9174 14.1887 11.857C14.1887 11.7362 12.478 10.2671 12.3371 10.2671C12.2968 10.2872 11.8943 10.6293 11.4113 11.052Z" fill="#898989"/>
<path d="M162.737 11.052L161.852 11.7966L162.797 12.5614L163.723 13.3262L164.649 12.5614L165.595 11.7966L164.709 11.052C164.226 10.6293 163.784 10.2872 163.723 10.2872C163.663 10.2872 163.22 10.6293 162.737 11.052Z" fill="#898989"/>
<path d="M167.125 11.0117C166.863 11.3337 166.883 11.3539 167.205 11.0922C167.527 10.8306 167.628 10.6696 167.467 10.6696C167.426 10.6696 167.265 10.8306 167.125 11.0117Z" fill="#898989"/>
<path d="M139.19 12.461L138.144 14.0309L140.72 18.1768C142.128 20.451 143.336 22.3227 143.396 22.3227C143.457 22.3428 144.061 21.8195 144.765 21.1755L146.013 20.0283L143.175 15.7013C141.605 13.3265 140.317 11.2535 140.317 11.1126C140.317 10.9919 140.297 10.8711 140.277 10.8711C140.237 10.8711 139.754 11.5755 139.19 12.461Z" fill="#898989"/>
<path d="M212.106 13.5877L211.079 14.5939L211.864 15.2782L212.629 15.9424V18.2367C212.629 19.5046 212.569 20.5311 212.488 20.5311C212.388 20.5109 212.086 20.1688 211.804 19.7461C210.757 18.2568 209.107 17.9348 207.537 18.921C207.014 19.243 206.591 19.4443 206.591 19.3638C206.571 19.2833 206.451 19.4443 206.29 19.726C205.726 20.7122 206.088 22.3826 207.014 23.0267C207.678 23.4694 207.879 23.4292 207.517 22.9059C207.115 22.3222 207.115 22.2216 207.598 21.7386C208.141 21.1952 208.926 21.2355 209.751 21.8594L210.435 22.3826L211.985 21.3763C212.83 20.8128 214.018 20.1084 214.601 19.7864L215.648 19.2229L215.608 16.848L215.547 14.4531L214.34 13.5273L213.132 12.5814L212.106 13.5877Z" fill="#898989"/>
<path d="M38.9234 18.458C38.6618 18.78 38.6819 18.8001 39.0039 18.5385C39.3259 18.2769 39.4266 18.1159 39.2655 18.1159C39.2253 18.1159 39.0643 18.2769 38.9234 18.458Z" fill="#898989"/>
<path d="M146.697 19.3643L146.314 19.8271L146.777 19.4448C147.019 19.2234 147.22 19.0221 147.22 18.9819C147.22 18.8209 147.059 18.9416 146.697 19.3643Z" fill="#898989"/>
<path d="M203.351 19.2627C203.09 19.5847 203.11 19.6048 203.432 19.3432C203.613 19.2023 203.774 19.0413 203.774 19.0011C203.774 18.84 203.613 18.9407 203.351 19.2627Z" fill="#898989"/>
<path d="M67.9044 19.4648C67.6427 19.7869 67.6629 19.807 67.9849 19.5453C68.3069 19.2837 68.4075 19.1227 68.2465 19.1227C68.2063 19.1227 68.0452 19.2837 67.9044 19.4648Z" fill="#898989"/>
<path d="M139.552 19.666C139.291 19.988 139.311 20.0081 139.633 19.7465C139.814 19.6056 139.975 19.4446 139.975 19.4044C139.975 19.2434 139.814 19.344 139.552 19.666Z" fill="#898989"/>
</svg>
